/* XPM */
static char *out[] = {
/* columns rows colors chars-per-pixel */
"64 64 234 2 ",
"   c #89C545",
".  c #030202",
"X  c #090504",
"o  c #161515",
"O  c #130F0D",
"+  c #28181B",
"@  c #0C2D0A",
"#  c #2E2B13",
"$  c #2E1D21",
"%  c #1F2322",
"&  c #2D2325",
"*  c #272828",
"=  c #352726",
"-  c #363939",
";  c #660D15",
":  c #4E3313",
">  c #573736",
",  c #4E3130",
"<  c #763633",
"1  c #56271A",
"2  c #5C4714",
"3  c #694A09",
"4  c #694814",
"5  c #685318",
"6  c #795519",
"7  c #734E0E",
"8  c #724C21",
"9  c #785626",
"0  c #694D3B",
"q  c #6B5030",
"w  c #75672D",
"e  c #6C562D",
"r  c #3D3F41",
"t  c #673A45",
"y  c #763A4B",
"u  c #742A41",
"i  c #4F3D41",
"p  c #316579",
"a  c #464949",
"s  c #575A5A",
"d  c #53504D",
"f  c #674B42",
"g  c #6A5247",
"h  c #794956",
"j  c #77545B",
"k  c #704B4F",
"l  c #68675A",
"z  c #716D53",
"x  c #555C64",
"c  c #7C5A63",
"v  c #5E6464",
"b  c #66696B",
"n  c #7B6568",
"m  c #727272",
"M  c #BF2336",
"N  c #C92439",
"B  c #885911",
"V  c #886617",
"C  c #8C7319",
"Z  c #937A17",
"A  c #986910",
"S  c #AD7210",
"D  c #957927",
"F  c #88712E",
"G  c #916C23",
"H  c #C17D08",
"J  c #CD7C10",
"K  c #8C3650",
"L  c #AE345C",
"P  c #BB3765",
"I  c #CF3449",
"U  c #DA3E73",
"Y  c #864758",
"T  c #895451",
"R  c #946B57",
"E  c #9A735D",
"W  c #886B50",
"Q  c #A6765D",
"!  c #845A66",
"~  c #934E65",
"^  c #BA476A",
"/  c #B0526F",
"(  c #936A74",
")  c #A77A63",
"_  c #AD6A7B",
"`  c #DC4976",
"'  c #DB4777",
"]  c #C95779",
"[  c #DA527B",
"{  c #CF5C6B",
"}  c #E14C7B",
"|  c #E1537E",
" . c #D15966",
".. c #7A807F",
"X. c #9E851B",
"o. c #B08E19",
"O. c #9A842D",
"+. c #AA8C22",
"@. c #CB880B",
"#. c #D88907",
"$. c #DB960A",
"%. c #D09515",
"&. c #E49D0B",
"*. c #E39708",
"=. c #E08F06",
"-. c #DDA20E",
";. c #C8A419",
":. c #E5A20C",
">. c #EAAC0D",
",. c #E8A50B",
"<. c #E9AD14",
"1. c #E5A815",
"2. c #ECB313",
"3. c #EDBB15",
"4. c #EAB71B",
"5. c #F1BB13",
"6. c #F0B90F",
"7. c #D4AD27",
"8. c #EBB827",
"9. c #E3B22C",
"0. c #E3972D",
"q. c #EFC018",
"w. c #F1C51C",
"e. c #F4C212",
"r. c #EEC528",
"t. c #F2CB2A",
"y. c #F1C826",
"u. c #F1CB34",
"i. c #F4D439",
"p. c #EFC737",
"a. c #DFC229",
"s. c #85877D",
"d. c #B6896E",
"f. c #98884D",
"g. c #CA896B",
"h. c #CC987B",
"j. c #DB9C7C",
"k. c #D78975",
"l. c #E99C7E",
"z. c #ECAB76",
"x. c #EBA86C",
"c. c #D7AB5D",
"v. c #F4D648",
"b. c #F3D14C",
"n. c #1D74B3",
"m. c #737D83",
"M. c #457590",
"N. c #B87789",
"B. c #B17183",
"V. c #DB5981",
"C. c #CB5E80",
"Z. c #E25A83",
"A. c #E65A86",
"S. c #D66788",
"D. c #CC7B93",
"F. c #E3648B",
"G. c #EA638B",
"H. c #E6678D",
"J. c #ED6B92",
"K. c #E86C94",
"L. c #F26C94",
"P. c #F26B96",
"I. c #ED749B",
"U. c #ED789B",
"Y. c #F37196",
"T. c #F3749A",
"R. c #F3799D",
"E. c #F2658D",
"W. c #EE7BA3",
"Q. c #F17DA2",
"!. c #7D8386",
"~. c #1B91D7",
"^. c #868B8C",
"/. c #86898C",
"(. c #8C9495",
"). c #919493",
"_. c #B49190",
"`. c #9DABB2",
"'. c #A2A7A8",
"]. c #ADB6B9",
"[. c #B0B7B8",
"{. c #C78596",
"}. c #D88D95",
"|. c #E69582",
" X c #E7849D",
".X c #DBA382",
"XX c #CAA08B",
"oX c #EDAC8A",
"OX c #E6A886",
"+X c #F1AD8A",
"@X c #EEB18D",
"#X c #F2B38E",
"$X c #F0B183",
"%X c #F2B693",
"&X c #D997A7",
"*X c #D58DA1",
"=X c #EC8CAB",
"-X c #EE83A6",
";X c #E996AE",
":X c #EC99B4",
">X c #F091B0",
",X c #E6A4B4",
"<X c #EBA5B9",
"1X c #EBABBB",
"2X c #E6A9B7",
"3X c #EBADBA",
"4X c #DBA2B1",
"5X c #F3C4A8",
"6X c #AFBCC4",
"7X c #B5BEC4",
"8X c #EDB3C2",
"9X c #EEBBC6",
"0X c #F1B5C4",
"qX c #F1BBC7",
"wX c #F2BCC9",
"eX c #EEABC0",
"rX c #BAC6CB",
"tX c #BBCAD3",
"yX c #AFC0C6",
"uX c #C4D2DA",
"iX c #D2DADE",
"pX c #CECFCB",
"aX c #F2C2CC",
"sX c #F3C8D1",
"dX c #CCDAE5",
"fX c #D8E4EA",
"gX c #DBECF9",
"hX c #D9E9F3",
"jX c #E2EAED",
"kX c #E3EFF5",
"lX c #E5F1F7",
"zX c #E5F1F8",
"xX c #ECF5F9",
"cX c #EBF5F7",
/* pixels */
"                                                                                                                                ",
"                                                                                                                                ",
"                                                                                                                                ",
"                                                                                                                                ",
"                                                                                                                                ",
"                                                                                                                                ",
"                                                                    =                                                           ",
"                                                                  7 9.w                                                         ",
"                                                            2 4 : S M.f.e w                                                     ",
"                                                      O m b S 9.9.D ~.M.c.9.                                                    ",
"                                                a ).jXl $.J #.1.p.%.a w b.9.                                                    ",
"                                              s jXcXjXv A 6 4 7 5 7 V Z 5 7 # #                                                 ",
"                                            m fXkXcX'.o.;.r.y.>.5.5.o.B 6.6.5.5.o.w                                             ",
"                                          a iXcXcX).;.t.b.8.*.5.*.6.*.3 *.&.&.8.v.t.C                                           ",
"                                          '.xXcX[.D <.9.,.2.5.&.5.w.*.7 :.,.&.r.2.8.8.2                                         ",
"                                        s lXcXyXD 8.3.y.y.5.1.y.v.<.S R 9 :.,.:.v.v.,.7                                         ",
"                                        7XxXhXW >.,.:.&.&.8.i.p.,.*.8 OXj.9 &.2.<.3.>.7                                         ",
"                                      ).xXxXyXX.t.r.t.w.y.2.*.=.S , j.#X%X|.q Z @.,.>.7                                         ",
"                                    d fXcXlXl 6.>.>.>.-.@.S 4 4 S x.#X#X%Xz.0.S 8 S 3.3                                         ",
"                                    '.xXcXfXl q.>.,.@.: g Q z.x.z.z.#X#X%X$Xx.x.j.7 7                                           ",
"                                    tXxXzXrXC t.w.2.$.8 @X@XR m & E @X#X#XOXd = E : %                                           ",
"                                  b cXcXgXrXC w.-.6 9 : @X%Xd.pX* R #X#X#X5XpX* W b m                                           ",
"                                  iXxXgXhXrXC e.S E g.> @X%X5X).. R #XoXg.%Xm . W !.b                                           ",
"                                (.xXcXzXhXyXC >.S E j.l.+X%X%X.XR h.#X#Xg.$X_.W d.!.hXo                                         ",
"                              % cXxXcXgXgXyXZ 3.-.7 b s +X+Xl.l.oX#X#XOXg.OX+X|.j.m.xX^.                                        ",
"                              !.xXxXgXgXlXyXX.2.,.A n.x +X#X+X+X%X|.oX#Xl.oX+X+X.Xm.zXuX                                        ",
"                            * jXxXcXgXgXgX^.7.3.2.&.B 8 _ +X+X+X#XoX{ { k.%X#XOXf tXzXxXr                                       ",
"                            s xXxXzXgXgX6XO.w.2.<.&.2.#.B R OX+X#X#X%X%X@X@Xg.9 5 dXgXxX'.                                      ",
"                            ].xXxXgXgXgXm a.t.&.3.&.2.=.J S 4 0 l.OXh.) ) q B *.4.b gXxXrX                                      ",
"                            [.xXzXgXgXyXX.i.<.$.G < 0 8 J S S g oXz.T 4 7 B 1 4 o.G dXzXkXv                                     ",
"                          s xXxXzXgX6Xw q.<.@.T D.=X=X*X1 0 d.OX+X#X+X) 0 K Y.-XN.O.l hXxX[.                                    ",
"                          s xXxXgXgXl a.r.$.5 K.U.=X=X-XY 0 f h..X.XOX) g $ ~ W.>XY 6 uXcXjX                                    ",
"                          v xXxXgXtXD v.$.3.8 J.W.>XW.Q.h U.:XY ; ; Y N.eX:Xh W.W.~ ;.b cXjXX                                   ",
"                          '.xXxXgXv r.v.&.3.9 V.Z.W.W.A.h *X XM N I  .eXeX9Xj F.A.Y ;.D [.jXa                                   ",
"                        O xXxXxXgXv i.t.:.5.@.T L ^ ^ ] u F.I N I N N :XeX8Xj ] [ 8 4.o.].xX/.                                  ",
"                        o xXxXxXgXv t.y.:.y.$.3 h h c + ' A.` M N I I :X<X:Xk y = @.3.o.'.xX/.                                  ",
"                        % xXxXxXgXyXO.t.$.w.:.S = R f : K I.~ 1 1 1 k ;X:XW.& f # =.e.z cXxX/.                                  ",
"                        % xXxXzXgXgXl i.9.4.3.#.0 #Xg.6 < R.B.o @ @ d =X=XB.) oX3 6.F uXcXxX/.                                  ",
"                        * xXxXxXgXgXuXX.t.<.q.-.0 %X@Xj.E h T g @ N.=X>X-X+ OX@X3 o.).gXkXxX^.                                  ",
"                        - xXxXxXgXgXdXe t.:.q.$.9 d.h.OX@X@X.X@Xg., :X;X=XX OX@X3 w tXgXzXxX/.                                  ",
"                        - xXxXzXfXtX`.C e.:.2.#.#.B : > 0 Q j.#X.Xg >X>X_ = T oX4 %.d hXlXxX/.                                  ",
"                        r xXxXxXtX: 6 3.:.:.>.$.H < L U U P K , # >  X( ] H.t ) R 6 d hXzXxX/.                                  ",
"                        a xXxXzXgX..o.*.-.>.-.S < U ' A.A.E.Z.> # P + P I.A.T.k h.d iXgXzXxX^.                                  ",
"                        a xXxXxXgXuXF @.@.#.@.K ' A.P.R.P.E.I.^ K C.i K H.U.Z.S., s gXzXzXxX(.                                  ",
"                        a xXxXxXgXgXuX^.z 4 < V.L.T.Q.R.I.Y.L.E.} ] ! y H.H.I.W.R d gXgXzXxX^.                                  ",
"                        s xXxXzXgXgXgXzXhXm ^ L.T.Y.T.R.Y.L.Y.} P., _.k F.} T.Y.Q.! uXgXzXxX^.                                  ",
"                        s zXxXzXgXgXgXzXn ] E.Y.Y.R.Y.Y.Y.Y.A.A.E.y eXB.K K.Z.P.T.S.( gXzXxX/.                                  ",
"                        s xXxXzXgXgXgXuXh E.T.Q.T.T.R.Y.Y.E.[ L.] ( 0X;X! V.V.A.Y.P.c dXzXxX^.                                  ",
"                        v xXlXzXgXgXgX(.C.Y.T.T.T.T.T.Y.A.| A.Y.t *XqX1X*X, K.[ V.K.B.B.zXxX(.                                  ",
"                        v xXxXzXgXgXhXt L.T.T.T.R.R.L.| G.| E.] j 3XqX<X8X( / K.V.V.U k zXxX^.                                  ",
"                        v xXxXzX`.(.a / Y.T.T.Y.Y.A.A.A.| E.L.y 2XaXwX,XaX&X, K.I.V.' K - b m                                   ",
"                        * '.6Xm     1 ' A.G.A.Z.| G.G.| L.Y./ ( 3XaXaX1XaXwXN., G.P.I.^ O                                       ",
"                                    U ' ` ` Z.J.J.A.` Y.T.] t 8XaXqXaX<X8XaX8XN.K K.J.J.y                                       ",
"                                  . [ U.I.I.J.G.` } H.J.L.f &XwXaXaXaX2X1XaXwX,XB.~ ~ V.H.                                      ",
"                                  K U } | } ` ` | E.J.F.k {.,XaXqXaXwX1X<X9XwX0X_.*XB.Y K .                                     ",
"                                  K } ' ' } A.G.Y.L.F.y *XB.0XaXaXaXaX1X1XqXaXwXD.3X0X<X_.X                                     ",
"                                $ V.I.I.P.P.T.P.A.C.h ;XqX/ 0XaXqXqX0X2X1X3XsXaX{.2XsX0X0Xj                                     ",
"                                / L.P.P.Y.J.V.K h c 2XqX_.{.wXaXaXsXqX<X<XqXsXaX*X;X8X8X8Xn                                     ",
"                              X u y y y y h c D.2X8XwXqXj &XwXwXaXaXaX1X1X3XaXaX8XB.8XaX8X8XO                                   ",
"                              d ,X,X,X2X&X<XwXwXwXsXaXwXj &XqXqXqXaX0X1X1X<XaXsX8XN.9XsX1X1XO                                   ",
"                              *X1XaXaX2X;X0X0XsXaXwXwX2Xj ,XwXwXwXaXwX<X1X1X0XwX9X4X4X9XaX8X(                                   ",
"                            = {.3XaXqX;X:XwXwXwXsXsXaX&Xh <XwXqXwXwXwX8X3XwX1XwXsX2X*X9XsXaX!                                   ",
"                                a ! ! ( 2X9XqX0XsXsX8XB.j <XwXsXwXaXwX8X<X<X0XaX_.( c ! ,                                       ",
"                                        & & & & * = * O o $ & & & = & $ $ & & &                                                 "
};
