/* XPM */
static char *out[] = {
/* columns rows colors chars-per-pixel */
"64 64 234 2 ",
"   c None",
".  c #030202",
"X  c #090504",
"o  c #161515",
"O  c #130F0D",
"+  c #28181B",
"@  c #0C2D0A",
"#  c #2E2B13",
"$  c #2E1D21",
"%  c #1F2322",
"&  c #2D2325",
"*  c #272828",
"=  c #352726",
"-  c #363939",
";  c #660D15",
":  c #4E3313",
">  c #573736",
",  c #4E3130",
"<  c #763633",
"1  c #56271A",
"2  c #5C4714",
"3  c #694A09",
"4  c #694814",
"5  c #685318",
"6  c #795519",
"7  c #734E0E",
"8  c #724C21",
"9  c #785626",
"0  c #694D3B",
"q  c #6B5030",
"w  c #75672D",
"e  c #6C562D",
"r  c #3D3F41",
"t  c #673A45",
"y  c #763A4B",
"u  c #742A41",
"i  c #4F3D41",
"p  c #316579",
"a  c #464949",
"s  c #575A5A",
"d  c #53504D",
"f  c #674B42",
"g  c #6A5247",
"h  c #794956",
"j  c #77545B",
"k  c #704B4F",
"l  c #68675A",
"z  c #716D53",
"x  c #555C64",
"c  c #7C5A63",
"v  c #5E6464",
"b  c #66696B",
"n  c #7B6568",
"m  c #727272",
"M  c #BF2336",
"N  c #C92439",
"B  c #885911",
"V  c #886617",
"C  c #8C7319",
"Z  c #937A17",
"A  c #986910",
"S  c #AD7210",
"D  c #957927",
"F  c #88712E",
"G  c #916C23",
"H  c #C17D08",
"J  c #CD7C10",
"K  c #8C3650",
"L  c #AE345C",
"P  c #BB3765",
"I  c #CF3449",
"U  c #DA3E73",
"Y  c #864758",
"T  c #895451",
"R  c #946B57",
"E  c #9A735D",
"W  c #886B50",
"Q  c #A6765D",
"!  c #845A66",
"~  c #934E65",
"^  c #BA476A",
"/  c #B0526F",
"(  c #936A74",
")  c #A77A63",
"_  c #AD6A7B",
"`  c #DC4976",
"'  c #DB4777",
"]  c #C95779",
"[  c #DA527B",
"{  c #CF5C6B",
"}  c #E14C7B",
"|  c #E1537E",
" . c #D15966",
".. c #7A807F",
"X. c #9E851B",
"o. c #B08E19",
"O. c #9A842D",
"+. c #AA8C22",
"@. c #CB880B",
"#. c #D88907",
"$. c #DB960A",
"%. c #D09515",
"&. c #E49D0B",
"*. c #E39708",
"=. c #E08F06",
"-. c #DDA20E",
";. c #C8A419",
":. c #E5A20C",
">. c #EAAC0D",
",. c #E8A50B",
"<. c #E9AD14",
"1. c #E5A815",
"2. c #ECB313",
"3. c #EDBB15",
"4. c #EAB71B",
"5. c #F1BB13",
"6. c #F0B90F",
"7. c #D4AD27",
"8. c #EBB827",
"9. c #E3B22C",
"0. c #E3972D",
"q. c #EFC018",
"w. c #F1C51C",
"e. c #F4C212",
"r. c #EEC528",
"t. c #F2CB2A",
"y. c #F1C826",
"u. c #F1CB34",
"i. c #F4D439",
"p. c #EFC737",
"a. c #DFC229",
"s. c #85877D",
"d. c #B6896E",
"f. c #98884D",
"g. c #CA896B",
"h. c #CC987B",
"j. c #DB9C7C",
"k. c #D78975",
"l. c #E99C7E",
"z. c #ECAB76",
"x. c #EBA86C",
"c. c #D7AB5D",
"v. c #F4D648",
"b. c #F3D14C",
"n. c #1D74B3",
"m. c #737D83",
"M. c #457590",
"N. c #B87789",
"B. c #B17183",
"V. c #DB5981",
"C. c #CB5E80",
"Z. c #E25A83",
"A. c #E65A86",
"S. c #D66788",
"D. c #CC7B93",
"F. c #E3648B",
"G. c #EA638B",
"H. c #E6678D",
"J. c #ED6B92",
"K. c #E86C94",
"L. c #F26C94",
"P. c #F26B96",
"I. c #ED749B",
"U. c #ED789B",
"Y. c #F37196",
"T. c #F3749A",
"R. c #F3799D",
"E. c #F2658D",
"W. c #EE7BA3",
"Q. c #F17DA2",
"!. c #7D8386",
"~. c #1B91D7",
"^. c #868B8C",
"/. c #86898C",
"(. c #8C9495",
"). c #919493",
"_. c #B49190",
"`. c #9DABB2",
"'. c #A2A7A8",
"]. c #ADB6B9",
"[. c #B0B7B8",
"{. c #C78596",
"}. c #D88D95",
"|. c #E69582",
" X c #E7849D",
".X c #DBA382",
"XX c #CAA08B",
"oX c #EDAC8A",
"OX c #E6A886",
"+X c #F1AD8A",
"@X c #EEB18D",
"#X c #F2B38E",
"$X c #F0B183",
"%X c #F2B693",
"&X c #D997A7",
"*X c #D58DA1",
"=X c #EC8CAB",
"-X c #EE83A6",
";X c #E996AE",
":X c #EC99B4",
">X c #F090B0",
",X c #E6A4B4",
"<X c #EBA5B9",
"1X c #EBABBB",
"2X c #E6A9B7",
"3X c #EBADBA",
"4X c #DBA2B1",
"5X c #F3C4A8",
"6X c #AFBCC4",
"7X c #B5BEC4",
"8X c #EDB3C2",
"9X c #EEBBC6",
"0X c #F1B5C4",
"qX c #F1BBC7",
"wX c #F2BCC9",
"eX c #EEABC0",
"rX c #BAC6CB",
"tX c #BBCAD3",
"yX c #AFC0C6",
"uX c #C4D2DA",
"iX c #D2DADE",
"pX c #CECFCB",
"aX c #F2C2CC",
"sX c #F3C8D1",
"dX c #CCDAE5",
"fX c #D8E4EA",
"gX c #DBECF9",
"hX c #D9E9F3",
"jX c #E2EAED",
"kX c #E3EFF5",
"lX c #E5F1F7",
"zX c #E5F1F8",
"xX c #ECF5F9",
"cX c #EBF5F7",
/* pixels */
"                                                                                                                                ",
"                                                                                                                                ",
"                                                                                                                                ",
"                                                                                                                                ",
"                                                                                                                                ",
"                                                                                                                                ",
"                                                          ,                                                                     ",
"                                                        w 7.4                                                                   ",
"                                                    w 5 f.M.S : 2 2                                                             ",
"                                                    7.c.p ~.D 9.9.S z m O                                                       ",
"                                                    9.b.F x %.p.1.#.J %.l fX).a                                                 ",
"                                                # # 5 5 A B 7 7 4 4 B A l jXcXjXv                                               ",
"                                            w ;.e.5.5.5.B o.6.6.<.y.p.;.+.'.jXjXfXm                                             ",
"                                          V p.v.y.&.&.*.3 ,.6.&.5.&.4.b.t.;.'.xXcXiXa                                           ",
"                                        2 8.8.1.r.&.,.-.7 =.w.5.&.5.<.>.1.2.D [.cXcX'.                                          ",
"                                        3 ,.b.v.:.,.:.9 R S 1.v.y.1.2.t.t.8.8.D [.cXzXs                                         ",
"                                        7 ,.3.<.2.&.V .X.X8 =.*.p.i.4.&.,.&.,.>.W hXxXyX                                        ",
"                                        7 >.,.%.G w |.@X#X.X, S =.&.5.y.w.t.r.t.X.yXxXxX).                                      ",
"                                        3 6.A 8 S 0.z.#X#X#Xx.S 7 4 A J :.>.>.>.6.l zXxXfXd                                     ",
"                                          7 7 j.x.x.$X#X%X#XoXz.x.OXQ g : #.&.>.q.z hXxXxX'.                                    ",
"                                          % : R & d OX#X#X#XE % n ( @X@X8 $.4.w.w.C rXgXxXtX                                    ",
"                                          m b W * pX%X%X#X#XR * pXd.%X@X: 6 V %.w.C rXgXcXcXb                                   ",
"                                          m !.W . ..%Xg.oX#XR . ).5X#X#X, g.R A e.C tXgXgXxXiX                                  ",
"                                        o fX!.d.W _.oXg.#X#Xh.R XX%X@X#Xx.j.Q X.>.X.yXgXzXxXxX(.                                ",
"                                        (.cXm.j.|.+XOXg.OX#X#X+Xz.l.+X+Xj b 6 :.3.C yXgXgXlXxXcX%                               ",
"                                        pXzXm..XoX+X+Xl.%XoX|.%X+X+X#X+Xx n.V >.6.O.yXkXgXgXxXxX!.                              ",
"                                      r cXzXuXd OX%X#Xk.{ { oX#X+X+X+X_ 4 B *.2.q.;.s.kXgXgXzXcXjX*                             ",
"                                      '.xXgXuX5 q g.#X#X#X#X#X%X+XOXR B #.2.&.2.4.w.O.yXgXgXzXcXxXd                             ",
"                                      rXcXhXm 4.*.B > ) ) h.OX|.< 3 S #.=.6.&.5.:.t.7.m gXgXgXxXxX].                            ",
"                                    b kXcXdXG X.4 4 B 7 7 T z.oXg A A H 9 0 < G $.<.i.X.6XgXgXzXxX[.                            ",
"                                    [.xXkXb X.N.W.P.K 0 Q @X#X@X$X) 0 > *X;X=XS.T @.1.w.w ].gXzXxXxXx                           ",
"                                    jXcXuX7 ~ =XW.~ & f d.j.j..Xj.k f Y W.=X=X-XK.8 $.u.r.l gXzXxXxXs                           ",
"                                  X jXcXb ;.~ W.I.h :XeXN.! ; ; Y :X*Xy Q.W.>XW.K.q 5.#.v.D tXgXxXxXv                           ",
"                                  a jXrXO.;.K V.H.j wXeX<X .I N N  XW.y J.W.W.Z.S.6 5.,.v.t.v gXxXxX'.                          ",
"                                  ^.xX'.+.4.4 ' ] h wXeX:XN N N N I H.u C.^ ^ L K @.3.,.t.i.v gXxXxXxXO                         ",
"                                  ^.cX`.o.3.@., y h :X<X:XI I N M  .F.' + h j h 3 $.y.:.y.t.v gXxXxXxXo                         ",
"                                  ^.xXkXz e.$.# g = =X:X;Xk 1 1 1 ~ P.K : f R = S >.w.:.y.X.yXhXxXxXxX%                         ",
"                                  ^.cXlXuXF >.3 oX) _ =X;Xg @ @ o B.I.< 6 g.+X0 #.3.2.7.i.b gXgXxXxXxX%                         ",
"                                  ^.xXlXgX).o.3 @X.X+ -X>X=XN.@ g T j E .X#X+X0 $.q.4.i.X.tXgXgXzXxXxX*                         ",
"                                  ^.xXlXhXuXw 3 @XOX. =X:X:X, d.%X.XOX@XoXh.d.9 $.q.-.t.e dXgXgXxXxXxX-                         ",
"                                  ^.xXlXgXd %.3 @XT = _ =X=Xk |.%Xh.) f i 1 B #.#.>.:.q.C `.tXfXxXxXxX-                         ",
"                                  ^.xXzXhXd V R Q y H.] ( *X> # > K L U U I < H $.>.:.:.3.6 : tXzXxXxXr                         ",
"                                  ^.cXxXgXdXa h.k U.A.U.P + P @ > Z.E.A.Z.' U < S $.2.-.$.@.s.gXxXxXxXa                         ",
"                                  ).xXkXgXhXl , S.| -XG.K > C.L ^ T.G.T.R.L.Z.' K @.#.@.@.F uXgXxXxXxXa                         ",
"                                  /.xXzXgXkXd ~ Q.K.H.H.y c ] } G.Y.T.I.T.Q.T.L. .K 2 m ^.uXgXgXzXxXxXd                         ",
"                                  /.xXzXgXuX! Q.T.T.[ F.j D., K.[ L.Y.Y.R.T.T.T.Y.L ( hXlXhXgXgXzXcXxXd                         ",
"                                  ^.xXzXkXm S.T.Y.| H.K _ 1Xk K.A.A.Y.Y.T.T.T.T.Y.J.{ b kXgXgXgXzXxXxXs                         ",
"                                  (.xXkXfX! L.Y.A.| S.! ;XwX_ / E.` L.P.P.T.T.T.Y.U.E.k iXgXgXgXzXzXzXx                         ",
"                                  (.cXzX/.] T.V.' I.= *X3X0X*X< U.| | E.Y.Y.T.T.T.Y.Y.] (.gXgXgXzXxXxXv                         ",
"                                  ^.cXkXk ' ' V.J.] ( 8X<XwX3X! { E.| | | Y.R.T.R.R.R.P.t gXgXgXzXxXzXv                         ",
"                                  m b - K ' V.W.H., &XaX,XwXaX4Xh L.E.| G.| G.L.T.Y.T.P./ a (.`.zXxXcXv                         ",
"                                      O ^ I.P.G.= _.qXaX,XaXaX9X( / L.J.| G.H.[ } E.A.A.U ,     !.[.'.*                         ",
"                                      y J.G.K.K D.eXsX0X<XwXqXwX0X> ] R.J.` A.J.J.Z.' ' } P                                     ",
"                                      F.V./ Y B.,XwXwX1X<XaXaXaXaX;Xk Y.Y.H.} ` G.J.T.T.P.A.X                                   ",
"                                    . Y Y N.*X_.8XwX9X2X1XwXaXaXaX,X{.y H.J.E.| ' } } Z.Z.U K                                   ",
"                                    . _.,X9X2XD.wXsXwX1X<XaXaXwXaX0XB.*Xy F.E.Y.A.A.' ' U } K                                   ",
"                                    j 0X8XsX2X{.aXsX1X1X<X8XwXwXaX0X_ 0X;Xh C.A.L.Y.L.P.T.I.C.$                                 ",
"                                    n 8X8X0X4X*XaXsXwX1X<XqXsXaXaXwXN._.9X2X! h Y Z.H.T.P.P.P./                                 ",
"                                  O 8X8XaX8XB.9XaXaX3X1X1XaXsXwXaXwX4Xj 0XaX8X2XD.j h y y y y y X                               ",
"                                  o 2X2XsX9XC.9XsXwX1X1X1X0XaXwXqXqX&Xj 0XwXsXwX0XaX1X&X,X,X:X,Xd                               ",
"                                  B.9XaX9X&X:XwXwXqX<X1X1XwXaXwXwXwX<Xj 2XwXaXaXaXqX0X;X3XaXwX1X*X                              ",
"                                  ! 9XsXaX&X2XsXwX1XwX1XeXwXwXwXqXwX<Xh 4X9XsXaXqXaXqX;X;XqXaX1X{.=                             ",
"                                      , n j n _.aX8X<X<XeXwXaXwXaXwX<Xj B.0XaXsXqX0X9X3X( ! c a                                 ",
"                                                & & $ $ & & = & = & % o O * = = & & & &                                         "
};
