/* XPM */
static char *out[] = {
/* columns rows colors chars-per-pixel */
"64 64 248 2 ",
"   c #89C545",
".  c #080706",
"X  c #150A08",
"o  c #1C120A",
"O  c #171716",
"+  c #0C1118",
"@  c #390A0B",
"#  c #2C1A0C",
"$  c #25160A",
"%  c #341D0C",
"&  c #2D1211",
"*  c #0F2B0D",
"=  c #3B240D",
"-  c #392514",
";  c #3E3313",
":  c #171B26",
">  c #091B28",
",  c #351D23",
"<  c #172635",
"1  c #2A2525",
"2  c #35282A",
"3  c #393628",
"4  c #2B2F34",
"5  c #490C0D",
"6  c #550E12",
"7  c #491516",
"8  c #571315",
"9  c #500D10",
"0  c #770D13",
"q  c #691317",
"w  c #7D161B",
"e  c #761217",
"r  c #670C12",
"t  c #46270F",
"y  c #472913",
"u  c #532D13",
"i  c #473713",
"p  c #5C3313",
"a  c #563914",
"s  c #4F310E",
"d  c #633613",
"f  c #653C1A",
"g  c #6A3D1A",
"h  c #683A15",
"j  c #723E18",
"k  c #442A2A",
"l  c #493627",
"z  c #543133",
"x  c #683630",
"c  c #561A25",
"v  c #574519",
"b  c #684618",
"n  c #75431A",
"m  c #7A471A",
"M  c #695319",
"N  c #745212",
"B  c #7A6215",
"V  c #554832",
"C  c #7D4924",
"Z  c #655824",
"A  c #694A38",
"S  c #6E5031",
"D  c #766C30",
"F  c #082C44",
"G  c #09324C",
"H  c #0F364F",
"J  c #293750",
"K  c #583841",
"L  c #773849",
"P  c #6C3042",
"I  c #33415E",
"U  c #314A56",
"Y  c #344C4F",
"T  c #08466A",
"R  c #0A527C",
"E  c #0A4E77",
"W  c #324160",
"Q  c #4F5252",
"!  c #7A5847",
"~  c #774955",
"^  c #695151",
"/  c #6C6755",
"(  c #7D5A62",
")  c #586A70",
"_  c #626D7B",
"`  c #747776",
"'  c #6B7270",
"]  c #9A131B",
"[  c #8C1118",
"{  c #A6141C",
"}  c #A91921",
"|  c #B81B24",
" . c #991C21",
".. c #C82535",
"X. c #C61E25",
"o. c #865916",
"O. c #8A5616",
"+. c #936A12",
"@. c #AE7710",
"#. c #8D732F",
"$. c #8F5A24",
"%. c #C37A0D",
"&. c #8B344F",
"*. c #A8395D",
"=. c #B33B61",
"-. c #CD3145",
";. c #D13C6F",
":. c #8A4A55",
">. c #896453",
",. c #926B54",
"<. c #87664B",
"1. c #A6755D",
"2. c #925464",
"3. c #B1516F",
"4. c #906972",
"5. c #AC726E",
"6. c #A3435F",
"7. c #DB4877",
"8. c #CD5376",
"9. c #E1537E",
"0. c #E14D7C",
"q. c #D47070",
"w. c #D24359",
"e. c #7D8279",
"r. c #B58C1B",
"t. c #B09326",
"y. c #BAA22B",
"u. c #938139",
"i. c #D68A07",
"p. c #DB960B",
"a. c #CD8D11",
"s. c #E39A0A",
"d. c #E89517",
"f. c #D7A818",
"g. c #CAA517",
"h. c #E5A40C",
"j. c #EAAA0D",
"k. c #EAAC11",
"l. c #E6A814",
"z. c #ECB817",
"x. c #F0B610",
"c. c #D3B02A",
"v. c #EAB926",
"b. c #EDB529",
"n. c #D89030",
"m. c #F2C519",
"M. c #EEC318",
"N. c #F2C929",
"B. c #EFCA30",
"V. c #AD8167",
"C. c #B7866A",
"Z. c #A58760",
"A. c #D89877",
"S. c #CA9070",
"D. c #E79A7C",
"F. c #DDA07A",
"G. c #E8A57A",
"H. c #EEAE78",
"J. c #CD9F4F",
"K. c #F2D44A",
"L. c #C0C350",
"P. c #0A5988",
"I. c #0B5E8F",
"U. c #0B6598",
"Y. c #0B6EA6",
"T. c #0D74AD",
"R. c #0D70A4",
"E. c #0D76B1",
"W. c #0E7AB5",
"Q. c #1374AE",
"!. c #315E81",
"~. c #657882",
"^. c #B17585",
"/. c #D25B82",
"(. c #E45A84",
"). c #CE708C",
"_. c #EB648C",
"`. c #E6648B",
"'. c #EB6B93",
"]. c #F26C94",
"[. c #F36D99",
"{. c #ED759A",
"}. c #F3749A",
"|. c #F27398",
" X c #F0668F",
".X c #EF7BA3",
"XX c #758788",
"oX c #649FA1",
"OX c #7AC8CB",
"+X c #79BFC3",
"@X c #8B9294",
"#X c #B2888C",
"$X c #909DAA",
"%X c #99A5AE",
"&X c #A9AFB1",
"*X c #CF889B",
"=X c #E89C83",
"-X c #E3829E",
";X c #DBA483",
":X c #D4B19C",
">X c #ECAB85",
",X c #E9A885",
"<X c #F0AD88",
"1X c #EFB18B",
"2X c #F1B28D",
"3X c #F0B087",
"4X c #EEB593",
"5X c #D998A8",
"6X c #CE91A2",
"7X c #ED8AA9",
"8X c #E598AD",
"9X c #ED98B2",
"0X c #EBABBC",
"qX c #E8A5B7",
"wX c #EBB2BE",
"eX c #F0AEBC",
"rX c #D3A4AF",
"tX c #F1C8AB",
"yX c #A9BBD5",
"uX c #A9B7C7",
"iX c #98A7C0",
"pX c #EEB4C2",
"aX c #EEB9C5",
"sX c #F1BAC6",
"dX c #F2BDCA",
"fX c #F1B6C5",
"gX c #EEADC1",
"hX c #90D5D6",
"jX c #BCC4C7",
"kX c #A4DEDE",
"lX c #B6C7D8",
"zX c #B1E4E3",
"xX c #AAE1DF",
"cX c #C2C8CA",
"vX c #CAD2D5",
"bX c #F2C3CD",
"nX c #F2C7D1",
"mX c #CDDAE3",
"MX c #D7E4EB",
"NX c #DBECF6",
"BX c #DBECF9",
"VX c #D6E7F2",
"CX c #C8EDEC",
"ZX c #E1EEF6",
"AX c #ECF5F9",
"SX c #E5F1F7",
"DX c #E6EEF1",
"FX c #ECE5DE",
/* pixels */
"                                                                                                                                ",
"                                                                                                                                ",
"                                          Z.N                                                                                   ",
"                    Z #.                  M i       V #.                                                                        ",
"                    v +.        y X - t o v -   O   v B                                                                         ",
"                      i   X = Z f.f p p Z v.g.; = = ; i                                                                         ",
"                      B B = - c.j.f.- $ v.k.j.@.= p s o     X                     V                                             ",
"                      D z.#.y.j.j.z.t.t.k.l.@.@.t p p y     t $                 ,.l.-                                           ",
"                      D L.l.k.k.%.b.j.z.r.% 7 t h d p p . X d u           v v u.e.) r.o +.O                                     ",
"                      D L.N.N.N.n.N.b.@.y j d p O.h j u t d h h .         ; L.n.Q.R.a.c.l.+.` / .                               ",
"                      Z c.v.v.v.l.v.r.s h j d $.j h m u % j j d =         ; K.b.Z / l.K.d.i.%.r.@XMXe.                          ",
"                      # 3 i i a a i t d O.g O.x g j d % d j O.h %       - ; b M @.N b M M n O.o.@XMXAXvX                        ",
"                    # h n d d d d n m n j n n j m m t % o.m p j #   #.g.m.x.z.k.b f.x.x.j.N.v.g.#.jXDXDXvXQ                     ",
"                    s n b C g u h h h d t d h j j p % d j j j u X t.K.K.k.h.s.@.+.k.x.j.x.s.b.K.N.t.jXAXDX&X                    ",
"                  $ d h C m n $ i = t l ! t d d t A <.% t u m # o.N.v.l.z.s.j.@.@.j.m.x.j.z.x.k.b.f.#.vXAXAX`                   ",
"                  $ h d h h n - A.S.C.S.G.1.- - ,.G.A.D.G.% m X @.l.K.B.h.j.a.#.S %.z.K.z.k.z.N.N.M.v.D CXAXSX:                 ",
"                  o p m m j p - 2XC.f g C 1X,X,X<XS.d g C.$ o   @.k.z.k.h.a.#.,XC.$.s.l.K.B.k.s.p.h.h.k.e.BXAX%X                ",
"                  o d j j g n - 3X2X,XF.,X2X1X1X3X>XF.G.,Xo     @.j.h.a.$.<.,X2X2XS.p %.s.j.z.N.M.N.N.N.B NXAXAX)               ",
"                    u d h j d l 3XV.Z.Q o 3X1X2X2X,X' * ,.      +.x.o.C r.n.3X2X2X2Xn.+.b N +.p.j.h.k.k.f.XXAXAXcX              ",
"                    = % k = u ! 2XS.vX' O 3X2X>X<XtX&X: ,.        +.n H.H.H.2X2X2X4XH.H.H.D.1.V a s.h.x.f.XXBXAXAX'             ",
"                    # V ,Xk a S 2X2XFXX O 2X3XA.S.4Xe.. ,.        3 a <.3 / 2X2X2X2X^ 2 4.V.2XA.o.p.M.m.N.Z VXSXAX@X            ",
"                    % >.G.1.- :.2X2XtX>.<.2X2X,Xq.2XC.>.S.        $XQ A Q nX3X2X4X2Xx Q FX5.4XF.d M $.l.m.M BXNXAXSX3           ",
"                o = p = A.A.S.<X2XG.D.<X2X>X2XA.C.H.>XD.,X        %X/ ^ . &X2XS.2X2XV . vX2X2X;Xl A.A p.M.Z ZXBXSXAX%X          ",
"                  t t p k l 1.<X3X=XD.<XD.D.>X3X=X<X>X,X1X      Q MX/ C.>.:XA.S.2X4XC.>.:X2X2X<XA.G.A l.M.M NXBXSXAXDX`         ",
"                      $ p p <.A.>X<X3X3X3Xq.q.q.q.3X<X<X1.      vXAX) =X=X<X=XS.2X2X2X<X=X=X2X,XY / +.h.M.Z NXBXBXAXAXjX        ",
"                      t p d o A A.G.<X3X3X<XD.D.H.<X3X,.      ) MXZX/ 2X>X<X<X=X2X,X=X2X<X<X2X,X!.E a.h.M.Z SXNXBXBXAXAXQ       ",
"                                . z ,.D.G.<X1X3XA.>.V         ' AXZX%X! <X2X<Xq.8.q.2X2X2X2X=X1.N +.f.j.m.t.&XNXBXBXAXAXvX      ",
"                        . @ @ e ] 9 - A.S.A.A 7 %             vXAXZX&XB S ;X2X4X2X2X4X2X<X=X:.+.s.k.k.h.M.M.<.mXBXBXSXAXMX4     ",
"                    & e  .| ] { | { e ,.A.G.x ] } 0 0 6     + AXSXNX^ z.i.m S C.Z.A.>XD.u d %.i.s.k.k.k.l.N.t.%XBXBXBXAXAX`     ",
"                  5 } | | | X.} ] [ ] [ c A t [ ] } X.X.6   @XAXSX%Xr.+.g g O.N b 5.,X>Xb @.@.@.C A A +.h.b.N.D mXBXBXAXAXXX    ",
"                  ] c < G , q } | X.{ ] 6 { [ 9 | | } 6 G 1 vXAXMXD <.-X.X`.z ! V.4X2X1X;X5.l ~ 8X7X7X).S s.M.m.Q vXBXSXAXAX1   ",
"                8 w E R.Y.Y.E : , e e q 5 6 9 9 0 7 < T R.U AXSX@XM ^.7X.XP k ! S.;X;X;XV.! k )..X7X7X.Xq.o.s.N.y.@XBXZXAXAX1   ",
"                ] 1 Y.U.Y.Y.Y.G R T T T R R E P.P.P.P.> U.I AXDXZ +.)..X).4.qXqX4.:.q r 5.9X5.^..X7X7X[.`.B k.l.K.! mXNXAXAX1   ",
"                ] < U.E Y.P.I.G R R.W.T.W.T.T.E.E.T.U.. R ~.AX@Xg.u./.(.3.^.gXgX7Xw.-...-.7X3.3.(..X.X/.).+.x.h.K.y.%XNXAXAXXX  ",
"                ] 7 E E U.R I.F P.T.W.T.Q.E.E.R.Y.E.U.> H jXAX' M.g.A 7.6.^.gXgX).-.....| 9.8.&.;.3.=.=.j l.z.l.B.y.%XNXAXAXjX  ",
"                ] 0 & H H G G T U.T.T.T.T.T.T.E.E.E.I.: > jXAX` v.f.+.x K ^.9XqX7X-.-...=.9.9.*.z ( ~ K +.h.N.s.N.g.$XCXAXAXcX  ",
"              @ } w 2 yXyXiXG I.R.T.T.T.T.T.T.E.T.Y.I.) _ cXAXMXB z.@.% ^ z 9X9X).^ 7 a z 8. Xx % >.,.t %.z.M.l.N.#.mXBXAXAXvX  ",
"              c ] e z yXyX$XG U.Y.T.T.T.T.T.E.T.T.T.U._ _ cXAXDXuXr.j.Z ,X:.).7X*XV * * 3 ).].z b ,X4Xv p.z.l.B.c.@XBXBXAXAXvX  ",
"              6 { 0 2 yXyXoXG P.U.T.T.E.T.T.R.T.T.E.P._ _ uXAXZXVX/ f.Z 4X1.K 7X8X7X~ * >.:.~ 1.;X4X4Xb k.m.l.N.D VXBXBXAXAXmX  ",
"              6 { w k yXlX%XF P.U.R.T.E.E.E.Y.T.E.W.T _ ~.cXAXZXBX%X@.S 2X5.2 9XqX).V ;X4X;X1X,X;X;X1.O.p.z.z.c./ BXBXZXAXAXMX  ",
"              8 { 0 2 yXyX%X. T E T P.P.Y 3 3 U P.I.J iX~.uXAXZXNXv p.Z ,Xz K ).9X*X! 1X4XA.>.^ k s @.i.p.z.h.M.Z lXjXBXSXAXMX. ",
"              6 ] e k yXyX$X. t # t t y @.O.+.@.t = 1 uX_ cXAXZXCX3 B C.! 2.`.6.^.)., 3 x &.;.7.;.*.j i.h.h.h.k.f.B l BXAXAXMX. ",
"              8 ] r c ~.~.) o $ N % d n @.j h @.h h 1 ' Q jXAXZXBXvX^ 1.2.{.`.'.&.& =.* :.(._._.0.7.;.g a.h.j.s.p.@.&XVXAXAXSX. ",
"            X X.{ 6 $ >.*XV.. b @.# > F B +.o.V F G H :.A cXAXZXBXBXz z '.(.{._.L z (.&.8.'._.}.}.].9.;.h i.i.%.a./ BXBXAXAXAX. ",
"            X X.e o.l >X<X,XV & X P.Y.Y.U.U.U.U.T.E.P.^ ! cXAXZXBXBX2 ).{.{.(.].~ ~ _.7.].].|.}.}..X}. X7.x b @XXXNXBXBXAXAXAX. ",
"            X | p s.@.V.>X1.: > P.Y.T.T.E.Y.Y.E.T.T.Y.H x cXAXZXVXjX2.}.|.'.9.3.4.4.&._.9.|.].|.}.}.}.}. X&.@XBXAXBXBXBXAXAXSXO ",
"            X | 5 % a.n A z J P.I.U.T.E.T.U.T E.T.T.Q.J S cXAXZXBX~ {.{. X9.'.K *XrXL ].0._.].|.}.[.}.}.[.'.6.@XSXBXBXBXSXAXAXO ",
"            X | r ) _ @.s.N > F F F G G F > . G F F H + o cXAXNXlX:.|.[.(.(.8.4.9XsX~ ]._.9.].].[.}.}.}..X}._./ ZXBXBXNXAXAXAX1 ",
"            X ] ' kXkX) +.l.N 1 J J : 9 w e : < J J @ [ @ cXAXMX^ {.[.8././.z 0XeXsX^.L ].9.9. X|.|.}.}.}.}.].:.vXZXBXBXSXAXAX4 ",
"            X ) kXzXOX+XQ a.a.O W J F 9 w e + J J J @ w 5 cXAXmXL 7.7.`.{.6.#XwXqXsXqX^ ].(.(.(.(.}.}.}.}.}.}. X^ NXBXBXSXAXSX4 ",
"            Q kXxXkXOXXX9 u & < W W J 5 w e : W W W @ w 9 @XK 4 8.;.`.{.3.~ wXsXqXbXbX#X6.].(.(.`.9. X|.|.].|.|.L _ @XjXAXAXSX4 ",
"          ) zXCXkXOXoX9 w w 6 < W W J 9 w e < W W J @ [ e 0 9 & (..X'.8.z 6XdXdXeXbXaXwX( `.]._.9. X(.9.9._. X9.7.&     %X&X@XO ",
"        oXzXxXkXhX~.9 w w w & I W W < q w e : W I < q w 0 [ q *.'. X/.:.6XsXbXeX0XbXdXbXrXK `.[._.7.`.'.`.9.7.7.7.&.            ",
"      ~.zXzXkXOXoX8 w w w [ & W W W : [ w w : J I < q [ 0 ] c  X/.6.2.^.0XdXsXqXqXbXdXbXdX^.2. X].`.7.9. X'.}.}.[.=.            ",
"    _ kXzXzXhXoXX 0 w w w 6 X : : : X & q & + : : + & q 0 [ 7 :.2.^.5X*XsXbXaXqXeXbXbXbXdX5X^.:. X X_.0.7.7.9.0.(.;.x           ",
"  _ kXkXzXhX+Xu ] r w w w @ f f f g f $ q % g g g g = q e 0 , 5X0XdX6X5XbXbXwX0XeXbXsXbXbXgX^.).:._. X|.`.9.7.7.7.7.z           ",
"O CXCXhXhX+X1 } { r 8 8 r & f h f g g $ 7 - g g f b y 5 6 q ^.aXpXnX6X8XnXbXeX0XqXsXdXdXbXgX5.fX*X:./._.[.|.].].[.[.3.X         ",
". NXCXhX+XY . [ | 5       . # # # & # X   o # $ # # o   . w #XpXaXpX6XrXbXnXgX0XgXdXbXbXdXaX4.rXfX6X( ~ 6.(.].].[.[.[.&.        ",
"O zXhXOXY     X 6 6         . h d u         $ d p -     @ K wXpXnXqX^.dXbXdX0X0XgXnXbXsXbXdX^.^.dXdXgX8X5.( ~ L L L L K         ",
"  4 < 4                     . f f f         $ g f t       K qXpXnXwX).aXnXfXqX0XgXsXbXdXdXfX4.#XdXdXnXdXdXdXqX5X9XqXrX6XK       ",
"                            . u p f         $ p f p o     6XaXbXaX*XpXaXdXpX0XqXgXdXdXsXdXsX6X( dXdXdXnXbXsXeX8XpXbXfX0X^.      ",
"                            % h f p .       o u f g f - 4 ^.bXbXaX*XaXnXdX0XdX0XsXsXbXsXdXdX8X^ gXdXnXbXsXbXpX8X8XdXdX0X^.      ",
"                          . p g b f &       $ - # u y y #     ^ ( ( 4.rXdXgXqXqXpXsXnXdXbXfX9XK 6XsXnXdXsXfXwXqX4.( ( 4         ",
"                            o o o o                                     1 , 1 , , 1 2 1 2 1 1 . O 2 2 2 1 1 1 1                 "
};
