/* XPM */
static char *out[] = {
/* columns rows colors chars-per-pixel */
"64 64 213 2 ",
"   c #89C545",
".  c #1C3015",
"X  c #37391F",
"o  c #363923",
"O  c #3A3832",
"+  c #71191B",
"@  c #522F1C",
"#  c #7C271C",
"$  c #66281C",
"%  c #5B3623",
"&  c #4F342D",
"*  c #6C2924",
"=  c #753625",
"-  c #652B38",
";  c #633223",
":  c #27441D",
">  c #224927",
",  c #365727",
"<  c #3B4A37",
"1  c #2F583E",
"2  c #2F622F",
"3  c #34622B",
"4  c #39672B",
"5  c #3C7736",
"6  c #3B623C",
"7  c #454229",
"8  c #564B28",
"9  c #534D3E",
"0  c #4E5435",
"q  c #624A3F",
"w  c #754C3D",
"e  c #43672C",
"r  c #43732D",
"t  c #476B37",
"y  c #537039",
"u  c #703B48",
"i  c #3C7045",
"p  c #6A4A44",
"a  c #78584C",
"s  c #604F51",
"d  c #6C575B",
"f  c #755E50",
"g  c #6B5047",
"h  c #49684C",
"j  c #526149",
"k  c #506C52",
"l  c #4F7C5E",
"z  c #547A58",
"x  c #507447",
"c  c #656C56",
"v  c #776C55",
"b  c #6E7F5B",
"n  c #7B5F66",
"m  c #79786C",
"M  c #797B74",
"N  c #9E151A",
"B  c #981518",
"V  c #A31A1E",
"C  c #A11318",
"Z  c #8D1F21",
"A  c #971A23",
"S  c #A41D21",
"D  c #AA1D23",
"F  c #A71720",
"G  c #B11C23",
"H  c #BA1D26",
"J  c #9C2528",
"K  c #893233",
"L  c #AD2327",
"P  c #A72829",
"I  c #B22127",
"U  c #B52429",
"Y  c #BA262C",
"T  c #B4292D",
"R  c #BA2A2E",
"E  c #BD2C31",
"W  c #BC303C",
"Q  c #C63439",
"!  c #C4242C",
"~  c #883946",
"^  c #A93645",
"/  c #BA3847",
"(  c #BE3B58",
")  c #AD3D5A",
"_  c #C43D4A",
"`  c #C53C48",
"'  c #C03C5B",
"]  c #894348",
"[  c #964747",
"{  c #964F54",
"}  c #A6484D",
"|  c #BA4448",
" . c #A94956",
".. c #BB465B",
"X. c #A2515C",
"o. c #8B624E",
"O. c #8A5464",
"+. c #AA566C",
"@. c #BA556A",
"#. c #BB4762",
"$. c #8A6E60",
"%. c #8D7579",
"&. c #8A7675",
"*. c #A96065",
"=. c #B96579",
"-. c #B0686C",
";. c #CA424C",
":. c #C6444D",
">. c #C84956",
",. c #D44E58",
"<. c #D5545E",
"1. c #C45055",
"2. c #C64461",
"3. c #CB4C63",
"4. c #C34C6A",
"5. c #CB4E6B",
"6. c #C84A63",
"7. c #CB5469",
"8. c #CB596C",
"9. c #C75367",
"0. c #D55463",
"q. c #D35B6C",
"w. c #DC5B64",
"e. c #C95A74",
"r. c #D25B74",
"t. c #D95974",
"y. c #CD6375",
"u. c #C7667B",
"i. c #D4647B",
"p. c #DC647C",
"a. c #D3697C",
"s. c #D76474",
"d. c #E06476",
"f. c #4E802E",
"g. c #4A883A",
"h. c #4D933A",
"j. c #54963A",
"k. c #508138",
"l. c #55844F",
"z. c #638F57",
"x. c #5F846A",
"c. c #778369",
"v. c #7E996A",
"b. c #7F8675",
"n. c #7B9A7D",
"m. c #649066",
"M. c #848578",
"N. c #899A77",
"B. c #928C6C",
"V. c #91B07C",
"C. c #8EAC76",
"Z. c #9A7C84",
"A. c #CB6D86",
"S. c #DB6A82",
"D. c #D66A85",
"F. c #C4748B",
"G. c #C9798E",
"H. c #DB7386",
"J. c #CF7B91",
"K. c #E26C84",
"L. c #E6748A",
"P. c #E67F94",
"I. c #F07D92",
"U. c #9A8889",
"Y. c #969287",
"T. c #A1868A",
"R. c #BA8091",
"E. c #A49896",
"W. c #BB959E",
"Q. c #B6989D",
"!. c #A48F8A",
"~. c #8BAC87",
"^. c #98B384",
"/. c #ABB69C",
"(. c #BF9AA3",
"). c #B2ADAA",
"_. c #CB899A",
"`. c #EA849B",
"'. c #F2849A",
"]. c #F58499",
"[. c #CD9BAB",
"{. c #D199AA",
"}. c #F08DA2",
"|. c #EE96AE",
" X c #C7A2AC",
".X c #D8A7B7",
"XX c #DBB2BD",
"oX c #E0AFBD",
"OX c #F3A3B7",
"+X c #B9C6A5",
"@X c #CEC79C",
"#X c #CED1B8",
"$X c #DDBAC4",
"%X c #DBB8C7",
"&X c #E1B6C5",
"*X c #DBC4CA",
"=X c #DECFD5",
"-X c #E6C2CD",
";X c #E8C4CE",
":X c #EBCBD4",
">X c #EBC6D0",
",X c #F0CBD3",
"<X c #EED4DD",
"1X c #F1D8DD",
"2X c #EAD7E1",
"3X c #EEDDE5",
"4X c #F0DEE5",
"5X c #EFE5EC",
"6X c #F1E7EE",
"7X c #F1E9EF",
"8X c #F2E1E7",
"9X c #F2ECF3",
"0X c #F3F0F4",
/* pixels */
"                                                                                                                                ",
"                                                                                                                                ",
"                                                                                                                                ",
"                                                                                                                                ",
"                                                                                                                                ",
"                                                                                                                                ",
"                                                                                                                                ",
"                                                                                                                                ",
"                                                                                                                                ",
"                                                                                                                                ",
"                                                                                                                                ",
"                                                                                                                                ",
"                                                                                                                                ",
"                                                                                                                                ",
"                                                                                                                                ",
"                                                                                                                                ",
"                                                                                                                                ",
"                                                                                                                                ",
"                                                                                                                                ",
"                                                                                                                                ",
"                                                    : ,         Z                                                               ",
"                                                    e h.r   R G L U D     r ,                                                   ",
"                                                    , h.5 P N I P R D T 3 h.r                                                   ",
"                                              u.8.7.s.x V.= V R T V R Z V.l.*.9.r.@.                                            ",
"                                            a.7.7.9.a.-.z.8 U B C B V % n.-.`.1.6.8.u.                                          ",
"                                            D...9.s.y.y.x.@X= G V N # z l.=.y.8.>.' H.                                          ",
"                                      . 4 3 ^ 8.y.p.1.v v.b } >.q.] 9 N.g.] 8.H.y.8. .                                          ",
"                                        g.g.y 8.>.1.] l.e [ 7.,.Q _ p.7 h.0 3.t.3.s. .r 4                                       ",
"                                        0 m.l 7 Z J 7 ~.0 9.0./ ` ` 0.p /.N.} / W ] y h.4                                       ",
"                                        M ~.a T L L Q < m.K _ w.>.:.;.q i [ w.Q ,.{ 2 t s                                       ",
"                                      r C.j J V B Y R f +X9 d.;._ / s.g V.1.:.:./ ;.f ).%.                                      ",
"                                      e z.B.U V P D H $ 9 p ~ t.>...* % $.w.Q ,.W ;.o.n.&.                                      ",
"                                      n (.< I A N G U  .i.i.a.X.o T I T R | ,./ >.<.w k &.                                      ",
"                                        !.r 8 J Y L ^ s.9.7.9.8.; H E P B E | <.:.w 5 g.,                                       ",
"                                        g.h.5 j o 1 +.i...3.s.p.A D E N V Q & v Y.> 2 4 ,                                       ",
"                                        O %.m #Xz N.p r.p.p.a.`.+ H N N L R @ l.x b.Q. X                                        ",
"                                          W.:XM.n.t e +.y.9.+.q N.* ! ! V = 4 h U.;X-Xd                                         ",
"                                            $X3XE.k j.k.X 0 5 > x.m.c @ 7 h.h.c.4X,XU.                                          ",
"                                            Z.,X6Xc.r &.M t j.j c.M.M.U.*XE.z.U.2X(.                                            ",
"                                              %.,X*X<X7X7X=Xm  XXX*X0X0X7X8X-X1X(.                                              ",
"                                                Z.>X%X7X2X&X.X2X9X9X4X7X6X%X>X(.                                                ",
"                                                  U..X[.2X%X7X4X4X3X2X4X{..X[.                                                  ",
"                                                    #.5.4.G.&X6X:X&X.X@.5.4.~                                                   ",
"                                                  & |.D.D.e.#.G.F.e.4.D.D.|.{                                                   ",
"                                                    P.'.I.K.3.J.}.( t.L.I.|.~                                                   ",
"                                                    }.}.L.t.' 2.5.( t.K.I.OX]                                                   ",
"                                                    t.5.5.' 4.@.A.2.' 2.5.t.~                                                   ",
"                                                    - u +.t.t.F..X4.S.) O.-                                                     ",
"                                                      T.A.'.D..X>XA.`.`.R.                                                      ",
"                                                      G.I.'.e.:X3XF.'.'.A.%.                                                    ",
"                                                    !.A.S.I.G.4X3X$XS.L.r. X                                                    ",
"                                                    (.%X.X4.&X6X5X<X9._.{.XX                                                    ",
"                                                      E.4X_.2X9X7X<X_.>X X                                                      ",
"                                                          Z.0X0X7X1X[.d                                                         ",
"                                                                                                                                ",
"                                                                                                                                ",
"                                                                                                                                ",
"                                                                                                                                ",
"                                                                                                                                ",
"                                                                                                                                ",
"                                                                                                                                ",
"                                                                                                                                ",
"                                                                                                                                ",
"                                                                                                                                "
};
