/* XPM */
static char *out[] = {
/* columns rows colors chars-per-pixel */
"64 64 21 1 ",
"  c #69A937",
". c #6DAE3D",
"X c #6FB13E",
"o c #73B53D",
"O c #76B93E",
"+ c #7ABC3E",
"@ c #7EC13F",
"# c #6CAE40",
"$ c #74B640",
"% c #76B941",
"& c #7BBD41",
"* c #7EC142",
"= c #83C53E",
"- c #84C83F",
"; c #80BE43",
": c #86C545",
"> c #89C545",
", c #86C843",
"< c #89C845",
"1 c #87C348",
"2 c #8AC448",
/* pixels */
"<<<<><<<<>>><>>>>>>>>>>>>>><>>>>>>><<>><>>><><<<<<<>>>>>>>>>>>>>",
"<<=:<<<2><><>-<@>>>>>>>>>>>>>>>>>>><==><>>>><<><>>><>>>=>>>>>>>>",
"<<:=<<>><>><>@+Oo>>>>>>>>>><>>>>>>><==<<>>>>>>><<<>>>>; =;=>>>>>",
"<<::<<<<<>>>>>:>=>>>>>>>>>>>>>>>>>>>=><>>>>><<<<>>><>>====>>>>>>",
"<:>-<<<>>>>-=>>>>>>>>>>><>>>>=;>>>>>>>>>>>>>>=+><>>>>>=>>>>>>>>>",
">:>><<>>->>>>>>>>>>>2>>>>>2>>>>>>>>>>>>>>>>>>+ +=>>>>>>>>>>>>>>>",
">>-><>-O>>>>>>>>>>>>>>>>>>>>>>>>>>>>>>>>>>>>>>>>>>>>>>>>>>>>>>>>",
">:>><=+O+->>>>>;>>>>>>>>>>>>>>>>>>>>>>>>>>>>>>>>>>>>>>>>>>>>>>><",
">>>>>>>>;>22222->>>>>>>>>>>>>>>>>>>>>>>>>>>>>>=>>>=>>>>>2>>>>>>>",
">>>>>>>>>>->2--2>>=>=>>>>>>>>>>>>>>>>>>>>>>>>>->>>>>>>>>>2>>>>>>",
"->>>>>>>>-;>>>22=>==+>>>>>>>==>>>>>2>>>>>==+>>>>>>>>>>=>>>>>>>>>",
">->>>>2><>222>>>>>+= +=>>>>>>>>>>>>2>>>>=+++o==>>>>>== =>>>>>>>>",
">->>>>>>>>>>2-2>>>>>==>>>>>>>>>>>>>>>=>>>=== ==>>>>>====>>>>>22>",
"<>>->>>>>>>>2>>>>>>-=>>>>>>>>>>>>>>>>>>>>>>>>>>>>>>>>>==>>>>2222",
">>>>>>><>>>>>>>>=>>>>>>>>>>>>>>>>>>=>>>>>>>>>>>>>>>>>>>>>>>>>>>>",
">>>>>>>>><><>>>-=+>>>>>>>>>>>>>>>>==>>>>>>>>>>>>>>>>>>>>>>>>>>>>",
">>>>>>>>>>>>>>>;  ;>>>>>>>>>>>22>>>>>22>>>>>>>>>>>>>>>>>>>>>>>>>",
"><><>>>>>>>>>>>>>>>>>>>>2>>>>>22>>2>2222>>>>>>>>>>=>>>=>+==>>>>>",
">>>>>>>>>>>>>>>>>>>>>>>>>>22>>2222>>2>>2>>>>>=>>>>>>>>>++;=>>>>>",
">><<>>>>>>>>>>>>>>>>>>>>2>>>>>2>2>>>>>>>>>>>>>>>>>>>>>>==>=>>>>>",
">>>>>>>>>>>>>>>>>>>>=>>>>>>>>>>>>>>>>>>>>>>==>>>>>>>>>>>>>>>>>>>",
">>>>>>>>==>=>>>>>>>> >>>>>>>>>>>>>==>>>>>>> +=>>>>>>>>>>>>>>=>>>",
">2>>>>>>= ==>>>>>>> ++==>>>>>>>>>>>>>>>>>>+ =+>>>>>>>>>>>>>>=>=>",
"22>>>>>>====>>>>>>= ===>>>>>>>>>>>>>>>>>>>>;>>>>>>>>>>>>>>>>>>>>",
"2>>222>>>>>><>>>>>>>>=>>>>>>>>>>>>>>>>>>>>>>>>>>2>>>>222>>>>>>>>",
">>2222>>>>>>>>><>>>=>>>>>>>>>>>>>>>>>>>>>>>>>>>>>>>>>>2>>>>>>>>>",
">>>>>>>>>>><<<<>>>>>>>;;;;>>>>2>>>>>>>>>2>>>>>>>>>>>22>2>>>>>>>=",
"2>>>>>>>>>>>=>>>>>>>>>>>o=>>>2>2>>>>>>>>>2>2>>>>222>22>>>>>>>>>>",
"2>>>>>>>>>><->>>>>2>2>22>>22222222222222>>222>>22222222>=+=>>>>>",
">>>>>>2>>>>><<>>>>>>222222222222222222>>>>>>>22222>2>2>>  +>>>>>",
">>>>>>>>>>>>>>>>>>>>22222>2>22>222>222>o=;>2>2222222>>>>>>>>>>>>",
">>>>>>>>>>>>>>>>>>>>2222>>>>>>>>22>>>2 ;;>>2222222222>>>>>>>>>>>",
">>>->::::>2222>2222222;::1::>:2;2>222>>;>222222222;22:2222::=>>=",
">>>>>:<:=::::2::22;:222::=::;>2:22>>;>2>2;;22>;;;>22::;222::::>>",
">>><>::oo&:::>::2<:2:>::::+O2>:2>>2>>>>222>>>>>+o;;22::::2::@O:-",
">:-><:oO#o:::<:::::::<::::;::22>>>>;>>;222;2;2<@&+:>:::::22:::::",
">><<>>:::::222:::&1::::<:1:::::2>>;;2;2>;2222;22<1::2211:2>:::>:",
"::-<-::>:;:2:::;+.O:1<:<<<::2:2;>;;;22;2222>22;211::::11;::::>::",
":::::::22::2:::;%%&:::::<::<:2>:>>2>2222>;2222;2::<:21::;:::>:>:",
":<<:>:::::2:<<::,:::1<<12:<:>2:2>>2;2;2>2>>;>222:::111:Oo;&=::::",
"2:>:>->>:>:2:2::,:1:1<<:>>2::>2>>>>>>>>;>>>>222;:::>:<:+&%*11:::",
":2>>:>2=>>2>>>>>:,<2:::<>>>>:>>>>;=>>>>>>>>>222-:>2>2:>:::::::::",
">>><>><>>2>:+:>><2<:><><=<>>>->>>>=>>>>>>>>>2<22>>>>:>:>:=o*:::>",
":-<<>>>>>2>Oo+:><2<<>:2:<>>>>>>>>>>>>>>>>>>><<-<>>->>><>>;$&:<>>",
"><>>>>2>>>>;:;<<>>><>>->2><>>2<2>>22>>>>>>>>>><<<><<:<>:<<<>:<>>",
"->><<<<>>>><>>2<2><>>><><2>><<2<>>>222>>+>>>>>-2<<<<<<<<<>2<<:>>",
">>222>>22>>2>22<<>>2>>>>>>>>22<<>>22>2=;o+=>>--2><<<:<>><:<<2>>>",
"><>2>>><>222>22>>>>>2>>>>>222222>>>>22>o;;>>>>;2><:=:>>22>>><<>>",
">>>2<:o:<:22222222>222:22:222222222222:12<2222<22<<:<>>>>>>>>>2<",
"->22;o.X:<:22>2222<222<<1:222222222222222<2222222<<::>>><2><<><2",
"<2>2>::;2222222222<22>:1o122222<222:2<:22222<22222<<>>:<22>>>>>2",
">>><>:2:22<2:2222222>>%%$.<222222<<12<1122222222:<2<22::2>>>>>>>",
">>:>::22212:222:222;22:21:22::>;:;2:::::222221122222:2<:>><>>>->",
"=>>==>:2:2:22::&2;222;222:2;2;2;2:::,,,:2221:2::::2::2:;-<:>><>>",
"->o@>:2:::<12&&$%::2:2:;1::222>22:2:$O,,:<:112:2<::<::&$O:<><<>>",
">>:::2>:121<:1&&&:::2:12::2:2>:>::2::*::::::,:,::22:::o.oo>->::>",
"<:<::<111:22:2;2111:::211<:1;::::;22:::<::::::&::2:2:::11:::<<:<",
"1:::::112:::::;2111::;221121&&;122::2:2:2:2::+X%@:::;::2:::::-<<",
":<::::,+1:::<:22:2:122;21::121::22:2<<<:2<<::&$&;12:22::<<::<<::",
":::::+&oO11:1:<:111:::22::112<2::22::::::::::<:::::<222:::::<>;2",
"::::::$&%1:111:11:111<::12::11:2:2::<2::1::2:::1::2:<1:::::::<:2",
"::2:1:2112:211::121:1:2<::2::,,<2222::::<:::<::2<:221::::<::&<::",
":121111211::11::::1,&,::1<::,,,:1:2:222:<1<+<1:<222:::::::::=::<",
"::11:11::::::12:::+O.+::::<:*<,:,:::::2::@,o+::11:::,:O,<-,,,::1"
};
