/* XPM */
static char *out[] = {
/* columns rows colors chars-per-pixel */
"64 64 231 2 ",
"   c #89C545",
".  c #030303",
"X  c #0C0909",
"o  c #0B0604",
"O  c #160907",
"+  c #1D120A",
"@  c #19110B",
"#  c #171517",
"$  c #07111B",
"%  c #220A09",
"&  c #2E0A0B",
"*  c #35090B",
"=  c #25160C",
"-  c #2A160B",
";  c #2C1A0C",
":  c #251A0E",
">  c #341D0D",
",  c #3A1F0F",
"<  c #2A1B14",
"1  c #391513",
"2  c #350F12",
"3  c #36220D",
"4  c #3C210E",
"5  c #3B2515",
"6  c #3F351C",
"7  c #081C2A",
"8  c #191A25",
"9  c #331A26",
"0  c #1B262A",
"q  c #08273A",
"w  c #192637",
"e  c #21293B",
"r  c #363837",
"t  c #343229",
"y  c #430C0E",
"u  c #4A090B",
"i  c #540F12",
"p  c #5B0F12",
"a  c #491315",
"s  c #5B1113",
"d  c #561517",
"f  c #540B0F",
"g  c #670D12",
"h  c #710E12",
"j  c #7A0E13",
"k  c #641215",
"l  c #6A1618",
"z  c #7D151A",
"x  c #771317",
"c  c #680B0F",
"v  c #43260F",
"b  c #4C2A0F",
"n  c #442B0F",
"m  c #58340E",
"M  c #422610",
"N  c #4C2B13",
"B  c #452912",
"V  c #522E13",
"C  c #4B3514",
"Z  c #543013",
"A  c #5D3313",
"S  c #553B15",
"D  c #4D300E",
"F  c #623613",
"G  c #6B3B15",
"H  c #663B1A",
"J  c #6A3D1A",
"K  c #643814",
"L  c #713F16",
"P  c #703F18",
"I  c #63370F",
"U  c #571721",
"Y  c #473328",
"T  c #543B2D",
"R  c #563E30",
"E  c #473227",
"W  c #693830",
"Q  c #3D4738",
"!  c #674916",
"~  c #74421A",
"^  c #7A461C",
"/  c #7D491E",
"(  c #734116",
")  c #775A19",
"_  c #664E17",
"`  c #5A4437",
"'  c #544829",
"]  c #694B3B",
"[  c #6D472C",
"{  c #6E642F",
"}  c #57481A",
"|  c #062B43",
" . c #082C44",
".. c #0B334D",
"X. c #093049",
"o. c #093A57",
"O. c #153144",
"+. c #242D43",
"@. c #29364E",
"#. c #2D3B57",
"$. c #313F5E",
"%. c #4F3A40",
"&. c #33415E",
"*. c #3F5256",
"=. c #084568",
"-. c #074D75",
";. c #09517B",
":. c #175273",
">. c #334160",
",. c #13405E",
"<. c #464C57",
"1. c #4B5658",
"2. c #505257",
"3. c #7D5C47",
"4. c #66695E",
"5. c #4D696C",
"6. c #4F5762",
"7. c #870D14",
"8. c #950E15",
"9. c #82151A",
"0. c #89141A",
"q. c #95141B",
"w. c #9C131A",
"e. c #A3151D",
"r. c #AD151D",
"t. c #B0161D",
"y. c #801A22",
"u. c #AB1922",
"i. c #B41B24",
"p. c #B91923",
"a. c #BC2026",
"s. c #C31C25",
"d. c #C42029",
"f. c #814B1D",
"g. c #875A15",
"h. c #935D17",
"j. c #8D6619",
"k. c #946413",
"l. c #926C15",
"z. c #B27918",
"x. c #AB7515",
"c. c #845323",
"v. c #8B7428",
"b. c #895A46",
"n. c #846552",
"m. c #946C54",
"M. c #93684F",
"N. c #A6785D",
"B. c #A87252",
"V. c #B57C61",
"C. c #AA7B60",
"Z. c #9F7B66",
"A. c #D26561",
"S. c #B0891B",
"D. c #958932",
"F. c #B69C2D",
"G. c #C98716",
"H. c #CD8F15",
"J. c #E59216",
"K. c #E7AA0D",
"L. c #E8A814",
"P. c #EBB415",
"I. c #D3B330",
"U. c #EDBA25",
"Y. c #EEB124",
"T. c #E5A125",
"R. c #EFC42A",
"E. c #D7C83E",
"W. c #B58669",
"Q. c #979D50",
"!. c #C78966",
"~. c #CB9375",
"^. c #DA9775",
"/. c #DD8E72",
"(. c #E79A7B",
"). c #DEA179",
"_. c #E4A27C",
"`. c #CAAF4E",
"'. c #DECA45",
"]. c #0A5684",
"[. c #0A5C8B",
"{. c #095887",
"}. c #0B5F90",
"|. c #0B6293",
" X c #0A679B",
".X c #0A6DA4",
"XX c #0A6EA9",
"oX c #0D74AD",
"OX c #0E74AB",
"+X c #0D76B0",
"@X c #0D78B5",
"#X c #1175AC",
"$X c #677383",
"%X c #759597",
"&X c #71878E",
"*X c #6BA6A8",
"=X c #67B3B8",
"-X c #7D8BA0",
";X c #78C9CD",
":X c #8F8E8C",
">X c #8594A8",
",X c #828FA3",
"<X c #88ABAC",
"1X c #C09C85",
"2X c #DCA281",
"3X c #ECA482",
"4X c #ECAC85",
"5X c #E7AA85",
"6X c #F1AF89",
"7X c #F0AE85",
"8X c #EFB28B",
"9X c #EFB187",
"0X c #F0B18A",
"qX c #F1B087",
"wX c #DDBCA5",
"eX c #F2CDB3",
"rX c #AABCD5",
"tX c #A7BAD3",
"yX c #A1B2CD",
"uX c #89D2D4",
"iX c #92D7D7",
"pX c #83CACC",
"aX c #A2DDDD",
"sX c #B6C6D9",
"dX c #A3E0DF",
"fX c #A7DEE0",
"gX c #A9E1E1",
"hX c #B6E6E5",
"jX c #E2E2DF",
"kX c #CFF0EF",
"lX c #C7C7C4",
/* pixels */
"                                                                                                                                ",
"                                                                                                                                ",
"                                                          C `.                                                                  ",
"                                                ) {       5 )                   ) v.                                            ",
"                                                ! _   X   + _ @ 4 M : : B       _ )                                             ",
"                                                @ _ M > 3 S.U.j.Z A S S.D.; +   }                                               ",
"                                          @     . C K 3 ) K.K.U.C 3 S.K.L.} Z C S.                                              ",
"                                          B O   3 A A 4 S.k.L.K.I.v.P.P.K.I.{ L.F.                                              ",
"                                        v F > o B I K G v V - l.K.K.P.J.L.P.K.E.Q.                                              ",
"                                        V G F V 4 J G ^ I F ~ N _ R.R.T.Y.R.U.E.D.                                              ",
"                                      - A ( ^ b > L ~ J c.G L G Z l.Y.Y.U.U.U.'.D.                                              ",
"                                      = I f.^ F > F ^ G ^ f.G f.G b D S S C 5 C < X                                             ",
"                                      = L I ( f.m ; L / ( ~ ^ ( ( ^ ^ K I A F J ~ 5                                             ",
"                                        v G ^ L F v b L J H I v F I ( I S A / ~ J K O                                           ",
"                                        O f.m v 4 ] ] V A K D ] ` 4 v n < P / ^ J F 4                                           ",
"                                          I b W.(._._.N.N 5 b._.^.W.!.~.T ~ G G F G >                                           ",
"                                          o ; B.~ ~ M.qX4X3X4XM.H K B.0X` A H ^ / K -                                           ",
"                                            @ W.5X2X5XqX8X8X8X5X5X5X9XqXT ~ J ~ L G ;                                           ",
"                                              m.. 4.2XqX0X0X0XT r W.m.4X3.V ~ H A F X                                           ",
"                                              m.X :XeX7X4X0X0XR *.kXN.8XW.4 N 5 , V                                             ",
"                                              m.. @.eX(.!.0X8XR . lX8X4XW.4 > ~.m.; .                                           ",
"                                              N.b.Z.eXV.^.0X8XC.3.wX8X4XW.: n.(.W.3 X                                           ",
"                                              W.3X3X6X!.!.0X6X6X3X3X3X6X6X/./.2XY F B +                                         ",
"                                              W.3X3X6X6X8X0X3X/.6X3X(.6X4X~.E E A N N                                           ",
"                                              n.5X8X8X2XA.A.A.4X6X6X0X4X(.V.b A ,                                               ",
"                                                ] 5X6X6X(.(.8X8X6X6X4X^.b.< Z A V ;                                             ",
"                                                    n.W.8X8X9X4X(.N.] . o                                                       ",
"                                                      1 a 5 /././.] * q.q.& & %                                                 ",
"                                                a x h q.r.d _._.V.U r.i.w.w.t.u.z 9                                             ",
"                                              1 p.s.i.e.8.a W W 9.w.7.q.e.d.a.i.i.i.s                                           ",
"                                            . q a q.p.p.h g i.f q.e.p.a.u.x U X. .a u.@                                         ",
"                                            q  X}.8 9 x s * g & l x l U < =. XXX.X|.U x                                         ",
"                                            =. XX.=.|.{.[.;.;.;.=.=.=.-. ..X XOX X.X..u.O                                       ",
"                                            [.{.q =.OX+X#X+X+X+X+X@XoX[.|  X;.#X].}.o.u.O                                       ",
"                                            q ].| =.+XOXOX+X@XOXoX+XoX[.o.;.;. X-.{.8 p.O                                       ",
"                                              O.q =.+XOX+XOXOX+XoXoXoX.X-...O.O.O.7 c p.%                                       ",
"                                              %X,X=.OX#XoXOXXX+XoXOX+XXX|.;.$XtXrX2.j u.i                                       ",
"                                              >X>X=.OX#XoX+X+X+XOXOX#XXX X=.$XtXrX6.9.7.x                                       ",
"                                              >X>X,.+X+XXXOXOXOX+XOXoX.X[.-.$XyXrX6.z 7.z                                       ",
"                                              >X-X .@X+XoXXXXXoXoXoXoX X{.=.$XtXrX<.z 8.9.                                      ",
"                                              ,XyX&.}.].:.t t Q {.].=.=.=.7 $XsXtX<.z 7.0.                                      ",
"                                              -XyX<.a v g.z.h.G.n n N > 4 + $XtXtX<.9.7.x                                       ",
"                                              6.$Xr A H k.g.G z.G F 4 S 3 ; *.$X$X%.x j 0.                                      ",
"                                            t B.V..... .r g.k.l.w q # x.k.X 3.~.W.o s 7.s.a                                     ",
"                                            T V.N.o.@X+X.X}. X|..XXX}.7 @ C ^.8X6X] h.s p.y                                     ",
"                                            Y V.E XX+X+XoXoX.X#XoXoXXX{.X.# 3.4X2Xc.L.k.q.y                                     ",
"                                            u b.%.+XoXXXoX].{.XX+XoXXX}.}.,.R [ ' z.! * u.y                                     ",
"                                            7.j % ..X.|  .$ $  .X.X.| | | 7 N G.H.4.5.s u.u                                     ",
"                                            j 7.x p w +.+.w p z k 8 +.e e m J.G.' aXgX%Xy.y                                     ",
"                                          & w.j z s e #.@.0 i z k 8 #.&.0 k.J.' =XuXhXdX%X#                                     ",
"                                          * r.h z p +.&.>.e s z l w &.&.@.% Z i *.;XiXgXgX&X                                    ",
"                                          & r.h z k +.&.>.+.i z l w &.&.@.* z x l 5.;XiXkXhX&X                                  ",
"                                          k r.h z z 8 &.&.+.d z z < >.>.>.8 0.z z s *.uXiXhXhX<X                                ",
"                                          0.r.c x z 8 >.&.e i 9.z 2 $.>.>.8 9.9.z z l 5.;XiXhXhX<X                              ",
"                                          0.e.h 9.& X 8 8 $ % s y X 8 8 8 X y z z z z u 5.;XaXhXaX%X                            ",
"                                          0.e.h 9.; J J ~ H Z y & A [ H H H - z 9.z h 7.h *XuXaXaXfX%X                          ",
"                                          0.p.g d ; H H H H Z 2 % H J H K H < k s p k 8.p.1 *XuXiXhXkX1.                        ",
"                                          l s.*   X > ; ; - =   X > < > > : O       O p.e.%   *XiXhXkX2.                        ",
"                                            i i     - A A >         4 A F =         1 l O       *XuXgX1.                        ",
"                                                    - J J M         N H J :                       0 e                           ",
"                                                    N H H ,         N A V %                                                     ",
"                                                > S H J A <         B K H v                                                     ",
"                                              : B N Z 5 > ;       X K H ~ A +                                                   ",
"                                                                    @ + + =                                                     "
};
