/* XPM */
static char *out[] = {
/* columns rows colors chars-per-pixel */
"64 64 232 2 ",
"   c None",
".  c #030303",
"X  c #0C0909",
"o  c #0B0604",
"O  c #160907",
"+  c #1D120A",
"@  c #19110B",
"#  c #171517",
"$  c #07111B",
"%  c #220A09",
"&  c #2E0A0B",
"*  c #35090B",
"=  c #25160C",
"-  c #2A160B",
";  c #2C1A0C",
":  c #251A0E",
">  c #341D0D",
",  c #3A1F0F",
"<  c #2A1B14",
"1  c #391513",
"2  c #350F12",
"3  c #36220D",
"4  c #3C210E",
"5  c #3B2515",
"6  c #3F351C",
"7  c #081C2A",
"8  c #191A25",
"9  c #331A26",
"0  c #1B262A",
"q  c #08273A",
"w  c #192637",
"e  c #21293B",
"r  c #363837",
"t  c #343229",
"y  c #430C0E",
"u  c #4A090B",
"i  c #540F12",
"p  c #5B0F12",
"a  c #471416",
"s  c #5B1113",
"d  c #551516",
"f  c #540B0F",
"g  c #670D12",
"h  c #710E12",
"j  c #7A0E13",
"k  c #641215",
"l  c #6A1618",
"z  c #7D151A",
"x  c #771317",
"c  c #680B0F",
"v  c #43260F",
"b  c #4C2A0F",
"n  c #442B0F",
"m  c #58340E",
"M  c #422610",
"N  c #4C2B13",
"B  c #452912",
"V  c #522E13",
"C  c #4B3514",
"Z  c #543013",
"A  c #5D3313",
"S  c #553B15",
"D  c #4D300E",
"F  c #623613",
"G  c #6B3B15",
"H  c #663B1A",
"J  c #6A3D1A",
"K  c #643815",
"L  c #713F16",
"P  c #703F18",
"I  c #63370F",
"U  c #571721",
"Y  c #473328",
"T  c #543B2D",
"R  c #563E30",
"E  c #473227",
"W  c #693830",
"Q  c #3D4738",
"!  c #674916",
"~  c #74421A",
"^  c #7A461C",
"/  c #7D491E",
"(  c #734116",
")  c #775A19",
"_  c #664E17",
"`  c #5A4437",
"'  c #544829",
"]  c #694B3B",
"[  c #6D472C",
"{  c #6E642F",
"}  c #57481A",
"|  c #062B43",
" . c #082C44",
".. c #122E42",
"X. c #0B334D",
"o. c #093049",
"O. c #093A57",
"+. c #183447",
"@. c #242D43",
"#. c #29364E",
"$. c #2D3B57",
"%. c #313F5E",
"&. c #4F3A40",
"*. c #33415E",
"=. c #3F5256",
"-. c #084568",
";. c #074D75",
":. c #09517B",
">. c #175273",
",. c #334160",
"<. c #13405E",
"1. c #464C57",
"2. c #4B5658",
"3. c #505257",
"4. c #7D5C47",
"5. c #66695E",
"6. c #4D696C",
"7. c #4F5762",
"8. c #870D14",
"9. c #950E15",
"0. c #82151A",
"q. c #89141A",
"w. c #95141B",
"e. c #9C131A",
"r. c #A3151D",
"t. c #AD151D",
"y. c #B0161D",
"u. c #801A22",
"i. c #AB1922",
"p. c #B41B24",
"a. c #B91923",
"s. c #BB2026",
"d. c #C31C25",
"f. c #C42029",
"g. c #814B1D",
"h. c #875A15",
"j. c #935D17",
"k. c #8D6619",
"l. c #946413",
"z. c #926C15",
"x. c #B27918",
"c. c #AB7515",
"v. c #845323",
"b. c #8B7428",
"n. c #895A46",
"m. c #846552",
"M. c #946C54",
"N. c #93684F",
"B. c #A6785D",
"V. c #A87252",
"C. c #B57C61",
"Z. c #AA7B60",
"A. c #9F7B66",
"S. c #D26561",
"D. c #B0891B",
"F. c #958932",
"G. c #B69C2C",
"H. c #C98716",
"J. c #CD8F15",
"K. c #E59216",
"L. c #E7AA0D",
"P. c #E8A814",
"I. c #EBB415",
"U. c #D3B331",
"Y. c #EDBA25",
"T. c #EEB124",
"R. c #E5A125",
"E. c #EFC42A",
"W. c #D7C83E",
"Q. c #B58669",
"!. c #979D50",
"~. c #C78966",
"^. c #CB9375",
"/. c #DA9775",
"(. c #DD8E72",
"). c #E79A7B",
"_. c #DEA179",
"`. c #E4A27C",
"'. c #CAAF4E",
"]. c #DECA45",
"[. c #0A5684",
"{. c #0A5C8B",
"}. c #095887",
"|. c #0B5F90",
" X c #0B6293",
".X c #0A679B",
"XX c #0A6DA4",
"oX c #0A6EA9",
"OX c #0D74AD",
"+X c #0D74AB",
"@X c #0D76B0",
"#X c #0D78B5",
"$X c #1175AC",
"%X c #677383",
"&X c #759597",
"*X c #71878E",
"=X c #6BA6A8",
"-X c #67B3B8",
";X c #7D8BA0",
":X c #78C9CD",
">X c #8F8E8C",
",X c #8594A8",
"<X c #828FA3",
"1X c #88ABAC",
"2X c #C09C85",
"3X c #DCA281",
"4X c #ECA482",
"5X c #ECAC85",
"6X c #E7AA85",
"7X c #F1AF89",
"8X c #F0AE85",
"9X c #EFB28B",
"0X c #EFB187",
"qX c #F0B18A",
"wX c #F1B087",
"eX c #DDBCA5",
"rX c #F2CDB3",
"tX c #AABCD5",
"yX c #A7BAD3",
"uX c #A1B2CD",
"iX c #89D2D4",
"pX c #92D7D7",
"aX c #83CACC",
"sX c #A2DDDD",
"dX c #B6C6D9",
"fX c #A4E0DF",
"gX c #A7DEE0",
"hX c #A9E1E1",
"jX c #B6E6E5",
"kX c #E2E2DF",
"lX c #CFF0EF",
"zX c #C7C7C4",
/* pixels */
"                                                                                                                                ",
"                                                                                                                                ",
"                                                                  '.S                                                           ",
"                                            b.)                   ) 3       { )                                                 ",
"                                            ) _       n : : v 3 + _ +   $   _ !                                                 ",
"                                              }   # = F.J.C A V b.E.D.> > M _ @                                                 ",
"                                              D.C Z S L.I.D.> D I.P.L.) 3 K n o     @                                           ",
"                                              G.P.{ W.L.I.I.b.U.L.P.z.c.4 A A 3   O B                                           ",
"                                              !.W.L.I.K.K.I.L.I.z.- D v L I I v X > F v                                         ",
"                                              F.W.E.E.T.R.E.E._ N ~ F K ^ G L , b F G b                                         ",
"                                              F.].Y.Y.Y.T.T.z.Z G ~ K v.G ^ L > b ^ ^ A -                                       ",
"                                            X > 6 n D S S b b G g.G g./ I ^ m > K ( g.I -                                       ",
"                                            4 ~ ( A A K G ^ ~ ( L ^ ~ ( g.( ; m g.^ I G %                                       ",
"                                          @ A ( ~ / A A K ! I I v F K G L b n G L ^ G v                                         ",
"                                          3 I G ^ ^ ~ : 5 4 4 ` ] b K A b ] ] 5 v m g.+                                         ",
"                                          > G K H H ~ R /.~.Q./.`.n.5 E B.`.`.).C.b K                                           ",
"                                          - K g./ G F R qXV.H H N.7X6X5X`.V.J [ V.; X                                           ",
"                                          ; K L P J ~ T 5X9X6X`.5XqXqX9XwX6X6X3XQ.@                                             ",
"                                          X F A J J V 4.5XM.>Xt T wXqXqXqX2X5.X M.                                              ",
"                                            V 3 5 N 3 Q.qXB.kX1.R wXqXqXqXrX>X. M.                                              ",
"                                          . ; M.^.< M Q.qX9XzX. ` 9X5X~.).rXY . M.                                              ",
"                                          o 5 Q.4Xn.: Q.7X9XeXn.B.9XqX).C.rXQ.4.B.                                              ",
"                                        @ B F T 3X(.).7X9X4X).7X7XwXqX~.~.7X4X).Q.                                              ",
"                                          b b V E 5 ^.7X7X).4XqX(.4XqX9X4X7X4X4XQ.                                              ",
"                                              > A b C./.5XqXqX7X7XS.S.S.3X7X7X6Xm.                                              ",
"                                            ; V A A < n./.4XwXqX9X5X).4X4X7X3X4.                                                ",
"                                                      X . ] Z._.5X9X9X9XQ.m.                                                    ",
"                                                % & & w.w.& ] (.(.(.5 a 1                                                       ",
"                                            1 u.i.i.w.r.p.i.l Z.6X`.d t.w.j z y                                                 ",
"                                          p p.a.p.s.a.i.9.8.e.0.W W a 9.9.p.d.p.1                                               ",
"                                        % p.9 q o.d z i.a.s.i.w.f y.p h d.a.w.a  .o                                             ",
"                                        h U .XXXoX.X-.< U x l g & c * k x 9 8  XXX7                                             ",
"                                      O y.O..X.X+X.XXX| ;.-.-.;.>.:.:.{.[. X-.o..X-.                                            ",
"                                      O t.O. X[.+X;.XX| }.+X#XOX#X@XOX#X$X+X-.q }.{.                                            ",
"                                      O p.8 {.:..X:.:.X.|.OXOXOXOX#X#XXX+X@X-.| [.q                                             ",
"                                      O a.c 7 +.+...o.;.XXOXOXOX#X+X+XOXOX@X<.q ..                                              ",
"                                      i i.j 1.tXtX%X:.|.oX#X+XOX+X+X+XOXOX+X-.;X;X                                              ",
"                                      z 8.z 7.tXtX%X-.XXXX$XOX+X#X#X+XOXOXOX-.,X<X                                              ",
"                                      z 8.z 7.tXuX%X;.}.XX$X+X#X+X+XoX+X#X$X-.,X<X                                              ",
"                                      0.9.z 1.tXtX%X-.}..X+XOX+XOX+X+X+X@X#Xo.,X,X                                              ",
"                                      0.8.0.1.yXdX%X7 -.;.-.}.[.r t Q <.}.|.1.uX<X                                              ",
"                                      j 8.0.3.yXtX%X@ , , B B M H.j.x.h.a 1 1.uX;X                                              ",
"                                      0.j x &.%X6.3.- 3 D 4 F ~ x.K h.l.H H r %X7.                                              ",
"                                    i d.8.k o Q.^.m.o l.c.# q w z.k.k.r ..X. .Z.M.t                                             ",
"                                    y a.k k.` 7XqX3XE @ 7 |.oXXX{..X X.XOX#XO.A.C.R                                             ",
"                                    y e.h.P.v.3X5X4.# o.[.oXOXOX+XXXoX@X@XOXoXY C.Y                                             ",
"                                    y t.* _ x.[ [ R <.}. XoXOX@XoX{.[.@XOXoX@X&.n.u                                             ",
"                                    y y.d 6.5.H.H.B 7 q | | X.X. .$ $  . .o.X.% j 8.                                            ",
"                                    y 0.&XhXsXQ H.K.m e @.@.8 k z s w e @.w s x 8.j                                             ",
"                                    # &XhXjXiX-X' K.l.0 %.$.8 k u.p 8 #.$.e p z j e.&                                           ",
"                                    &XhXhXpX:X2.f m % #.,.,.w k z s e *.*.e p z h y.*                                           ",
"                                  *XjXjXpX:X6.l z z * #.,.,.w l z d #.*.*.@.p z h t.&                                           ",
"                                1XjXhXsXaX=.k z z z < ,.,.,.9 x z s @.*.*.8 z z h t.k                                           ",
"                              1XjXjXpX:X6.x z z z z 8 ,.,.%.< z z i @.*.,.8 z 0.c y.q.                                          ",
"                            &XgXjXsX:X6.u j 0.z z y X 8 8 8 X y s % $ 8 8 X & z h r.q.                                          ",
"                          &XsXhXsXiX=Xx j j 0.u.z - ~ H H H H & y N J J J J - z h r.q.                                          ",
"                        2.lXjXpXiX=X1 a.9.g p s k - J J H J J % 1 Z J H H J ; d c a.q.                                          ",
"                        2.lXhXpX=X  % i.i.O       X ; < > - < o   = - - ; ; O   * d.l                                           ",
"                        2.gXpX=X      O g 2         = F A 4         > F A =     i i                                             ",
"                          t e                       : H H N         v J J ;                                                     ",
"                                                    = V F N         , H H N                                                     ",
"                                                    B F A M         < Z H J A <                                                 ",
"                                                  @ F J H H O       > > 5 C N B :                                               ",
"                                                    = + = @                                                                     "
};
