/* XPM */
static char *out[] = {
/* columns rows colors chars-per-pixel */
"64 64 62 1 ",
"  c #322F27",
". c #353229",
"X c #39362D",
"o c #3A392E",
"O c #3E3D32",
"+ c #413F34",
"@ c #3F4035",
"# c #444236",
"$ c #494437",
"% c #464539",
"& c #49463A",
"* c #47483A",
"= c #4C4A3D",
"- c #524C3E",
"; c #55503F",
": c #59503F",
"> c #4E4D41",
", c #524E41",
"< c #584F42",
"1 c #4F5043",
"2 c #545244",
"3 c #5B5445",
"4 c #565846",
"5 c #5C5946",
"6 c #565648",
"7 c #5A5649",
"8 c #565849",
"9 c #5C5B4B",
"0 c #5E5E50",
"q c #605746",
"w c #625947",
"e c #615748",
"r c #645C4B",
"t c #695E4D",
"y c #615F50",
"u c #6A5F50",
"i c #5F604D",
"p c #5F6152",
"a c #63614E",
"s c #6D614E",
"d c #71644F",
"f c #646353",
"g c #6B6453",
"h c #676856",
"j c #696957",
"k c #676758",
"l c #686759",
"z c #676958",
"x c #6C6B5B",
"c c #726552",
"v c #746954",
"b c #796A57",
"n c #726D5C",
"m c #796B5A",
"M c #6F705C",
"N c #72705F",
"B c #7D725C",
"V c #6F6F60",
"C c #726F60",
"Z c #737161",
"A c #787463",
"S c #80745D",
/* pixels */
"ZVV0xlVygAm9xVkVVVxfZzxVyBmsxZkxVVZkzxxV9SBB3AzxxVVxpNxxNrSmqNxf",
"286*0k0,ew3>20k0669*9kf0,q52>7kf7682>0k0>5e5=6pf0669*5kf725527p1",
"fyg55209y9xxe5299krt9209f2nngq208kyce928pafxxe928fkarw273f2xNz-s",
"y2ts5>pz9=40u3>fkf2ce39kp>20a5-9l02cte,fk8=8few2kfr3dq-fz0=40f2t",
"09223rr3hlx7,3ae50825tr5xfxx&3te3i9435sw9gzn7,3u50p225rr3jkxh=29",
"ffx2cvcyllx03cvv9yl7tvvexkxx*svvrfff5vvdyfxk53bvtyfh2svv5xfxk2xh",
">61>3,,32>5,>3,2222,<2,<2>32222,2212=3;;36>3,66,2,22222,,3,32599",
"cexyxggcbggefxgcgv9yxfmuvmsurxfbyvekkxsjubtcelymgccyfgabtbtcge55",
"u>2092u2t,7t096r7r,90>u79e,ry0,u3t,2096e<y,er92eeey,70,u3e<7rr*<",
"f2V>lCl7xxx**lCl70ff6Zl6xxx>>9CV3k7x,lZg7xVf>>xCyy7f79Cx>xVx%7k9",
"yyy>y0y9k9y>>yyf6f0y6f02lyk2>7ff6fyk,y7l7yyf>>yey0fy77yy6f9f>822",
"01>>7<&97*7y,7<%79%*,7,>62=y6<3&>9>>>7<&96%90<7>*79&*6<>26>,y5#3",
"y9f,-e<y<0Vk2,330C66,<t79y0kr>,r7l9f,,t,y99Vf><r<fV8<><t66yfgx,t",
">,,>>&&*>62&%,>&%>>,>*&&>27>%>=&%*<2&>&*>,92&&>>%>*7==>%+,65>*=>",
",e<,--&7g<7<>>&><<3e,&>%ve<<,,,>>>er,-&&3g3e>>>+&e<5q<=>>v55=37p",
"+1>+&&,+>>7eX96,&,>o%-&+>62yO,76&><+%&-&+9,9,+77>><++=+>+,297@==",
"6ykgqsdc9hzzxxxnxffx5tdd4zhxxZgxnkah5ddc3xhxkZgxCk0l2ddd3xhxx2fk",
"1>7,$ew3-7912fhf2>72#qwq=892=9hh7172+3w5=792=6fgy2>2*-wq=5728197",
"67<,t532422a3:;525,2r3229;2a53;725;35r2295*at232739-3r2257=ifr=5",
"y6dte,fxf2pfwr2fkrqsq3agh2akar:tff3dwt2gff;fhqt,fkr5sr3ahx-ihf2t",
"62=-233=75f2-<3327=--q5=979f$<q3=5>2:-5:-89f,-33,251-;q5$97i5>,2",
"9ah3ddc5lff9qscc6af2csdqxfxj&ddc5fk9wdsd9hah5qdcryff3ssd3xajh,kk",
"*2=#,-,,>2,=$-,,*2=*-2--,,2>#----*==$--;==2-&&<>-*>=%---*=2;*=78",
"t3hrhrttc5cerjettqrafavegwst5g9uts;fffsgtg;s3fyutswfaf5mtg=vst2r",
"s-2fg9t>ceuukfet3s>9h2c,eueggk5c-c=3hg5e,v=rcf7c35s>5h2g,t=tct-3",
"6=2*993,7e7++097=,>2279>e75#&297=2=6*939*<e8&*99<>>2,253%206O=2-",
"09k=9yxry9l**efx9999,kf3x9g,-2kl9f5x>yfx9frh**yffyyr92kf3x5g#i65",
",*%O>>*&7*,<%,=%=>#%===+2>=2*&==#2*#%,,+&7*=<+2>%&=*+,*%#3>==-o%",
"f7f=,t3y<1kk2-t30x22-5g5755h9-et7k2a=-tqf2=xg-3g<fx6,-es375fhh-s",
">*,&#++=>6ff=$++,2%&$+##>72h2&++=2&-&+$#222f3&++%,>*=##%*>799*#=",
"6xkkwcvc9kkx,--&7xgkqddb2xkx9,--=xhfqccb;xlxl&,-%kgf5dcc3xkxx3ax",
",9f5-ddt2ff7&X X*2ki-tdt>kk7,O...9fi=tdt-kk97+X  ,9f=rcs-fk9f2xf",
"2=&&2,**2---,ZnA9=%*6,**3,=-&ZnZx==*22=*22%3$fnZZ2=*22**22=2:3#=",
"ghr2fxl2scc,fflkfkg&fglf3dc55flkkgh27fxg-cdc%gkglghf&rkxf3ds3gfi",
"=*-&>>222&3a&=-<=*--%=,,2#272=-<=*$-&=*62==55&2,,-&=--=2-2%359%-",
"f2cqt3gff5xlwt5hafwtwqffh-xxtt5gff3det7fkh2zhwt7gfawtw5fgk=Nxh2s",
">*=:-$*22=91--$*22%:-$=,2=24=-$=>,*--=$=22=8-:=%>,2$-=*==5*27=*,",
"gkg3dvv5xzza3ccv5fhevdv:xhxM=dcc5hfawccb2ghM9wdcrkah5sdv3NfxM3yx",
"8f5-sss2af92,sss*f9=gds-ffir#ttc-9a5-cdt>kf5-3gc32f5=sss=ffre2xf",
"*#=2>*-5-%322>%,5$*2===5-O325,%=5-%,2,&=,-$332*=5-&--;-=52#322*,",
"c3r0xrr3v5wtexteqd77k7m2w3stqxag3d5efz5e5c<tegyc3ts57kec3t3ctq-3",
"=o#==#-#=%=<>=*=$&X*;O=+&#&-2-@,%=OO1=#=+-&%5=#=&$#o=2O-#$=&-3&&",
"k9N2fxn6hhM#,gxN2ffy2Mh9xkx1=rxM7fyZ=gxx8xgx#=hxl7fk2rxx2xlx*4f5",
"939*929=f77%*927=a22277=f8f**277*075=e,9,959O&f,2292=>7,&f59*-%=",
"7*,&,3+92#9f=-3#75&*&-5&22=f5&<,>7=>==3$6<#9f=:3#57#&-:,=2*1ga@q",
"y>0----f32ki,-<,yl=3--3,ir7f9=-e2f4r-,3-f72gf==3=kk=3--q459rfk=q",
"O2,+$&+#&3=++$&##o3&#++#=--+%+%#O+--%##+&=3$#+$%O$O5$+##o=-;#%==",
"-,-$#+#&:---&&#&-#&-$#+Oq---%-%%&-&;$+++&5=2%$=#$3$*&###+5-;$=21",
",ff03tssexxZ&,>>1ka95ssd3xxZ2>,>#jf95wsv2nxxkO,,=2fr7rsd3jxNN=9h",
"90k93gds2hhixkfxh7fa-sdg>khigxfxx9fa;sss-kxa9Zfkxf9f=tds:hfkf2xf",
"#$#*==**2**;#276=%#**;##1=*-%=262%$**==#-=*2=&272**#-=&*==&=32*,",
"f5s3r2yrf5xNet2y9awrq5f9h2nnfr5f9i3cqa2gfa7xnea29afr5a39ff=Nnx=r",
"r>st5-ff7*49aq,fk93cq37gp*29aq-rky,dwt-fh7*2fww,kff3s3;rk9*2if=r",
"97;=:q3=fpx6=:33=7==3q,=fikx#:w3*962--q:=kfx,-3q-221--q3#pfkf%27",
"9kp3sdc2zzf3qsdc=if3tsc-xzhk=sdd20k93ssv2hxf2wdcw7yf=ddd;xfzh2xf",
"@=%O=-$&*>=&+=-&#*$++-&=#==*#$==%@=#O-=%=*=*&+-=&+*%#$-&=*====>=",
"s3kklyucb,vtkx9ugs7fx9guc3vsrV9uss3hghftgv,vtx9gugu7yl9vtmysts2e",
"c=,fy<t,g,etf93t5e=ry1v,53wgf0<c3g-2f05u,g-tgy2ue3u>7y7c<5uetq=5",
"=*2O,06O,f,#+292O=>%>72*>06@O,76#>*>%27,#,0>+#69>*>>>+,>**%%72#3",
"07k=5fl9f5k>>9pk6f972kp2x902,2kf8f6k,,2k0f9f=&fpy9u>7>-e6706hx=9",
"2*&%,&#=6%22&,=#>,+%*,&+2>=22==&%2%%&,=#>2#>,&2&+,2+*,&,*2>===#=",
"p2f=,u3f>2Vx2-r3yl62-3g9<99xe,5u7y7f&,u30,2Vl-<u7yx8<-3u9287hg$v",
"*=&%++O>**<,%+++*>*&++++%>>,&++%%=&&%+++>**<2++++,*+&%++***=2-$$",
"3,t-<&&6cr3,&,==3<ee<,*%cg5*,,&=&,wu,-&&ecy5-&,&%y,e3,>&*cg3*s99"
};
